<mxfile host="app.diagrams.net" modified="2022-06-01T11:29:52.628Z" agent="5.0 (Macintosh; Intel Mac OS X 10_14_0) AppleWebKit/537.36 (KHTML, like Gecko) Chrome/101.0.4951.64 Safari/537.36" etag="jIA4LNgfrSfl5frptuB7" version="18.1.3" type="github" pages="8">
  <diagram id="akDMOG8QlkOs2LqveHOb" name="第 1 页">
    <mxGraphModel dx="1398" dy="1722" grid="1" gridSize="10" guides="1" tooltips="1" connect="1" arrows="1" fold="1" page="1" pageScale="1" pageWidth="827" pageHeight="1169" math="0" shadow="0">
      <root>
        <mxCell id="0" />
        <mxCell id="1" parent="0" />
        <mxCell id="8tOL7g0cv7lRHAr0kRH6-35" value="" style="rounded=0;whiteSpace=wrap;html=1;fillColor=#fff2cc;strokeColor=#d6b656;" parent="1" vertex="1">
          <mxGeometry x="360" y="-80" width="450" height="90" as="geometry" />
        </mxCell>
        <mxCell id="8tOL7g0cv7lRHAr0kRH6-1" value="Product repository proxy" style="rounded=0;whiteSpace=wrap;html=1;fillColor=#1ba1e2;strokeColor=#006EAF;fontColor=#ffffff;" parent="1" vertex="1">
          <mxGeometry x="149" y="320" width="661" height="40" as="geometry" />
        </mxCell>
        <mxCell id="8tOL7g0cv7lRHAr0kRH6-2" value="" style="rounded=0;whiteSpace=wrap;html=1;fillColor=#d5e8d4;strokeColor=#82b366;" parent="1" vertex="1">
          <mxGeometry x="360" y="80" width="450" height="160" as="geometry" />
        </mxCell>
        <mxCell id="8tOL7g0cv7lRHAr0kRH6-4" value="" style="rounded=0;whiteSpace=wrap;html=1;fillColor=#d5e8d4;strokeColor=#82b366;" parent="1" vertex="1">
          <mxGeometry x="149" y="90" width="181" height="150" as="geometry" />
        </mxCell>
        <mxCell id="8tOL7g0cv7lRHAr0kRH6-5" value="harbor" style="rounded=0;whiteSpace=wrap;html=1;" parent="1" vertex="1">
          <mxGeometry x="180" y="160" width="110" height="50" as="geometry" />
        </mxCell>
        <mxCell id="8tOL7g0cv7lRHAr0kRH6-7" value="" style="shape=flexArrow;endArrow=classic;html=1;rounded=0;" parent="1" edge="1">
          <mxGeometry width="50" height="50" relative="1" as="geometry">
            <mxPoint x="230" y="310" as="sourcePoint" />
            <mxPoint x="230" y="260" as="targetPoint" />
          </mxGeometry>
        </mxCell>
        <mxCell id="8tOL7g0cv7lRHAr0kRH6-9" value="harbor" style="rounded=0;whiteSpace=wrap;html=1;" parent="1" vertex="1">
          <mxGeometry x="180" y="100" width="110" height="50" as="geometry" />
        </mxCell>
        <mxCell id="8tOL7g0cv7lRHAr0kRH6-11" value="..." style="text;html=1;strokeColor=none;fillColor=none;align=center;verticalAlign=middle;whiteSpace=wrap;rounded=0;" parent="1" vertex="1">
          <mxGeometry x="205" y="210" width="60" height="30" as="geometry" />
        </mxCell>
        <mxCell id="8tOL7g0cv7lRHAr0kRH6-13" value="nexus" style="text;html=1;strokeColor=none;fillColor=none;align=center;verticalAlign=middle;whiteSpace=wrap;rounded=0;" parent="1" vertex="1">
          <mxGeometry x="537" y="90" width="70" height="20" as="geometry" />
        </mxCell>
        <mxCell id="8tOL7g0cv7lRHAr0kRH6-14" value="" style="rounded=0;whiteSpace=wrap;html=1;fillColor=#bac8d3;strokeColor=#23445d;" parent="1" vertex="1">
          <mxGeometry x="400" y="130" width="380" height="100" as="geometry" />
        </mxCell>
        <mxCell id="8tOL7g0cv7lRHAr0kRH6-15" value="hosted" style="text;html=1;strokeColor=none;fillColor=none;align=center;verticalAlign=middle;whiteSpace=wrap;rounded=0;" parent="1" vertex="1">
          <mxGeometry x="570" y="130" width="60" height="30" as="geometry" />
        </mxCell>
        <mxCell id="8tOL7g0cv7lRHAr0kRH6-16" value="maven" style="rounded=0;whiteSpace=wrap;html=1;" parent="1" vertex="1">
          <mxGeometry x="420" y="170" width="66" height="40" as="geometry" />
        </mxCell>
        <mxCell id="8tOL7g0cv7lRHAr0kRH6-17" value="npm" style="rounded=0;whiteSpace=wrap;html=1;" parent="1" vertex="1">
          <mxGeometry x="504" y="170" width="66" height="40" as="geometry" />
        </mxCell>
        <mxCell id="8tOL7g0cv7lRHAr0kRH6-18" value="pypi" style="rounded=0;whiteSpace=wrap;html=1;" parent="1" vertex="1">
          <mxGeometry x="607" y="170" width="66" height="40" as="geometry" />
        </mxCell>
        <mxCell id="8tOL7g0cv7lRHAr0kRH6-20" value="yum" style="rounded=0;whiteSpace=wrap;html=1;" parent="1" vertex="1">
          <mxGeometry x="690" y="170" width="66" height="40" as="geometry" />
        </mxCell>
        <mxCell id="8tOL7g0cv7lRHAr0kRH6-23" value="" style="shape=flexArrow;endArrow=classic;html=1;rounded=0;" parent="1" edge="1">
          <mxGeometry width="50" height="50" relative="1" as="geometry">
            <mxPoint x="639" y="310" as="sourcePoint" />
            <mxPoint x="639" y="260" as="targetPoint" />
          </mxGeometry>
        </mxCell>
        <mxCell id="8tOL7g0cv7lRHAr0kRH6-30" value="maven" style="rounded=0;whiteSpace=wrap;html=1;" parent="1" vertex="1">
          <mxGeometry x="384" y="-40" width="66" height="40" as="geometry" />
        </mxCell>
        <mxCell id="8tOL7g0cv7lRHAr0kRH6-31" value="go" style="rounded=0;whiteSpace=wrap;html=1;" parent="1" vertex="1">
          <mxGeometry x="471" y="-40" width="66" height="40" as="geometry" />
        </mxCell>
        <mxCell id="8tOL7g0cv7lRHAr0kRH6-32" value="npm" style="rounded=0;whiteSpace=wrap;html=1;" parent="1" vertex="1">
          <mxGeometry x="556" y="-40" width="66" height="40" as="geometry" />
        </mxCell>
        <mxCell id="8tOL7g0cv7lRHAr0kRH6-33" value="yum" style="rounded=0;whiteSpace=wrap;html=1;" parent="1" vertex="1">
          <mxGeometry x="650" y="-40" width="66" height="40" as="geometry" />
        </mxCell>
        <mxCell id="8tOL7g0cv7lRHAr0kRH6-34" value="pipy" style="rounded=0;whiteSpace=wrap;html=1;" parent="1" vertex="1">
          <mxGeometry x="730" y="-40" width="66" height="40" as="geometry" />
        </mxCell>
        <mxCell id="8tOL7g0cv7lRHAr0kRH6-36" value="proxy" style="text;html=1;strokeColor=none;fillColor=none;align=center;verticalAlign=middle;whiteSpace=wrap;rounded=0;" parent="1" vertex="1">
          <mxGeometry x="556" y="-80" width="60" height="30" as="geometry" />
        </mxCell>
        <mxCell id="8tOL7g0cv7lRHAr0kRH6-37" value="" style="shape=flexArrow;endArrow=classic;html=1;rounded=0;width=11;endSize=5.33;entryX=0.469;entryY=1.033;entryDx=0;entryDy=0;entryPerimeter=0;" parent="1" target="8tOL7g0cv7lRHAr0kRH6-35" edge="1">
          <mxGeometry width="50" height="50" relative="1" as="geometry">
            <mxPoint x="571.5" y="70" as="sourcePoint" />
            <mxPoint x="571.5" y="20" as="targetPoint" />
          </mxGeometry>
        </mxCell>
        <mxCell id="8tOL7g0cv7lRHAr0kRH6-38" value="代理" style="edgeLabel;html=1;align=center;verticalAlign=middle;resizable=0;points=[];" parent="8tOL7g0cv7lRHAr0kRH6-37" vertex="1" connectable="0">
          <mxGeometry x="-0.1996" y="-1" relative="1" as="geometry">
            <mxPoint as="offset" />
          </mxGeometry>
        </mxCell>
      </root>
    </mxGraphModel>
  </diagram>
  <diagram id="odYWxrLT3jzmKnoDPwcV" name="第 2 页">
    <mxGraphModel dx="2225" dy="1722" grid="1" gridSize="10" guides="1" tooltips="1" connect="1" arrows="1" fold="1" page="1" pageScale="1" pageWidth="827" pageHeight="1169" math="0" shadow="0">
      <root>
        <mxCell id="0" />
        <mxCell id="1" parent="0" />
        <mxCell id="3TzhwyXoR7SxD7qbPjMJ-1" value="" style="rounded=0;whiteSpace=wrap;html=1;" parent="1" vertex="1">
          <mxGeometry x="-110" y="-20" width="1310" height="550" as="geometry" />
        </mxCell>
        <mxCell id="QahmHyH51qg4NlwLbVIx-2" value="网闸" style="rounded=0;whiteSpace=wrap;html=1;fillColor=#f5f5f5;fontColor=#333333;strokeColor=#666666;" parent="1" vertex="1">
          <mxGeometry x="590" y="10" width="90" height="480" as="geometry" />
        </mxCell>
        <mxCell id="K_kFmx0mS9cXthyhGz04-6" value="" style="rounded=0;whiteSpace=wrap;html=1;fillColor=#eeeeee;strokeColor=#36393d;" parent="1" vertex="1">
          <mxGeometry x="80" y="210" width="470" height="110" as="geometry" />
        </mxCell>
        <mxCell id="QahmHyH51qg4NlwLbVIx-3" value="nexus2" style="rounded=0;whiteSpace=wrap;html=1;fillColor=#b1ddf0;strokeColor=#10739e;" parent="1" vertex="1">
          <mxGeometry x="120" y="232.5" width="160" height="70" as="geometry" />
        </mxCell>
        <mxCell id="QahmHyH51qg4NlwLbVIx-5" style="edgeStyle=orthogonalEdgeStyle;rounded=0;orthogonalLoop=1;jettySize=auto;html=1;entryX=0.5;entryY=0;entryDx=0;entryDy=0;" parent="1" source="QahmHyH51qg4NlwLbVIx-4" target="QahmHyH51qg4NlwLbVIx-3" edge="1">
          <mxGeometry relative="1" as="geometry" />
        </mxCell>
        <mxCell id="QahmHyH51qg4NlwLbVIx-7" value="监听/管理" style="edgeLabel;html=1;align=center;verticalAlign=middle;resizable=0;points=[];" parent="QahmHyH51qg4NlwLbVIx-5" vertex="1" connectable="0">
          <mxGeometry x="-0.1174" y="-2" relative="1" as="geometry">
            <mxPoint as="offset" />
          </mxGeometry>
        </mxCell>
        <mxCell id="QahmHyH51qg4NlwLbVIx-16" value="" style="edgeStyle=orthogonalEdgeStyle;rounded=0;orthogonalLoop=1;jettySize=auto;html=1;entryX=0;entryY=0.25;entryDx=0;entryDy=0;" parent="1" source="QahmHyH51qg4NlwLbVIx-4" target="QahmHyH51qg4NlwLbVIx-2" edge="1">
          <mxGeometry relative="1" as="geometry" />
        </mxCell>
        <mxCell id="QahmHyH51qg4NlwLbVIx-36" value="文件同步" style="edgeLabel;html=1;align=center;verticalAlign=middle;resizable=0;points=[];" parent="QahmHyH51qg4NlwLbVIx-16" vertex="1" connectable="0">
          <mxGeometry x="-0.2503" y="-3" relative="1" as="geometry">
            <mxPoint as="offset" />
          </mxGeometry>
        </mxCell>
        <mxCell id="QahmHyH51qg4NlwLbVIx-4" value="file-sync" style="rounded=0;whiteSpace=wrap;html=1;fillColor=#d5e8d4;strokeColor=#82b366;" parent="1" vertex="1">
          <mxGeometry x="140" y="100" width="120" height="60" as="geometry" />
        </mxCell>
        <mxCell id="QahmHyH51qg4NlwLbVIx-40" value="文件监听" style="edgeStyle=orthogonalEdgeStyle;rounded=0;orthogonalLoop=1;jettySize=auto;html=1;entryX=1;entryY=0.25;entryDx=0;entryDy=0;" parent="1" source="QahmHyH51qg4NlwLbVIx-9" target="QahmHyH51qg4NlwLbVIx-2" edge="1">
          <mxGeometry relative="1" as="geometry" />
        </mxCell>
        <mxCell id="3TzhwyXoR7SxD7qbPjMJ-2" style="edgeStyle=orthogonalEdgeStyle;rounded=0;orthogonalLoop=1;jettySize=auto;html=1;" parent="1" source="QahmHyH51qg4NlwLbVIx-9" target="QahmHyH51qg4NlwLbVIx-10" edge="1">
          <mxGeometry relative="1" as="geometry" />
        </mxCell>
        <mxCell id="3TzhwyXoR7SxD7qbPjMJ-3" value="文件上传" style="edgeLabel;html=1;align=center;verticalAlign=middle;resizable=0;points=[];" parent="3TzhwyXoR7SxD7qbPjMJ-2" vertex="1" connectable="0">
          <mxGeometry x="-0.0897" y="-2" relative="1" as="geometry">
            <mxPoint as="offset" />
          </mxGeometry>
        </mxCell>
        <mxCell id="QahmHyH51qg4NlwLbVIx-9" value="file-sync" style="rounded=0;whiteSpace=wrap;html=1;fillColor=#d5e8d4;strokeColor=#82b366;" parent="1" vertex="1">
          <mxGeometry x="880" y="100" width="110" height="60" as="geometry" />
        </mxCell>
        <mxCell id="QahmHyH51qg4NlwLbVIx-10" value="nexus" style="rounded=0;whiteSpace=wrap;html=1;fillColor=#b1ddf0;strokeColor=#10739e;" parent="1" vertex="1">
          <mxGeometry x="850" y="232.5" width="170" height="70" as="geometry" />
        </mxCell>
        <mxCell id="QahmHyH51qg4NlwLbVIx-22" style="edgeStyle=orthogonalEdgeStyle;rounded=0;orthogonalLoop=1;jettySize=auto;html=1;" parent="1" source="QahmHyH51qg4NlwLbVIx-21" target="QahmHyH51qg4NlwLbVIx-3" edge="1">
          <mxGeometry relative="1" as="geometry" />
        </mxCell>
        <mxCell id="QahmHyH51qg4NlwLbVIx-23" value="同步代理库" style="edgeLabel;html=1;align=center;verticalAlign=middle;resizable=0;points=[];" parent="QahmHyH51qg4NlwLbVIx-22" vertex="1" connectable="0">
          <mxGeometry x="-0.1231" relative="1" as="geometry">
            <mxPoint as="offset" />
          </mxGeometry>
        </mxCell>
        <mxCell id="QahmHyH51qg4NlwLbVIx-21" value="" style="rounded=0;whiteSpace=wrap;html=1;fillColor=#FFFFFF;strokeColor=#36393d;" parent="1" vertex="1">
          <mxGeometry x="-90" y="10" width="120" height="515" as="geometry" />
        </mxCell>
        <mxCell id="QahmHyH51qg4NlwLbVIx-24" value="maven" style="rounded=0;whiteSpace=wrap;html=1;" parent="1" vertex="1">
          <mxGeometry x="-82.5" y="40" width="105" height="50" as="geometry" />
        </mxCell>
        <mxCell id="QahmHyH51qg4NlwLbVIx-25" value="repo-sync-job" style="text;html=1;strokeColor=none;fillColor=none;align=center;verticalAlign=middle;whiteSpace=wrap;rounded=0;" parent="1" vertex="1">
          <mxGeometry x="-75" y="10" width="90" height="30" as="geometry" />
        </mxCell>
        <mxCell id="QahmHyH51qg4NlwLbVIx-26" value="npm" style="rounded=0;whiteSpace=wrap;html=1;" parent="1" vertex="1">
          <mxGeometry x="-82.5" y="100" width="105" height="50" as="geometry" />
        </mxCell>
        <mxCell id="QahmHyH51qg4NlwLbVIx-27" value="pypi" style="rounded=0;whiteSpace=wrap;html=1;" parent="1" vertex="1">
          <mxGeometry x="-82.5" y="160" width="105" height="50" as="geometry" />
        </mxCell>
        <mxCell id="QahmHyH51qg4NlwLbVIx-28" value="gomod" style="rounded=0;whiteSpace=wrap;html=1;" parent="1" vertex="1">
          <mxGeometry x="-82.5" y="220" width="105" height="50" as="geometry" />
        </mxCell>
        <mxCell id="QahmHyH51qg4NlwLbVIx-29" value="docker" style="rounded=0;whiteSpace=wrap;html=1;" parent="1" vertex="1">
          <mxGeometry x="-82.5" y="280" width="105" height="50" as="geometry" />
        </mxCell>
        <mxCell id="QahmHyH51qg4NlwLbVIx-30" value="helm" style="rounded=0;whiteSpace=wrap;html=1;" parent="1" vertex="1">
          <mxGeometry x="-82.5" y="340" width="105" height="50" as="geometry" />
        </mxCell>
        <mxCell id="QahmHyH51qg4NlwLbVIx-31" value="yum" style="rounded=0;whiteSpace=wrap;html=1;" parent="1" vertex="1">
          <mxGeometry x="-82.5" y="400" width="105" height="50" as="geometry" />
        </mxCell>
        <mxCell id="QahmHyH51qg4NlwLbVIx-32" value="apt" style="rounded=0;whiteSpace=wrap;html=1;" parent="1" vertex="1">
          <mxGeometry x="-82.5" y="460" width="105" height="50" as="geometry" />
        </mxCell>
        <mxCell id="K_kFmx0mS9cXthyhGz04-8" style="edgeStyle=orthogonalEdgeStyle;rounded=0;orthogonalLoop=1;jettySize=auto;html=1;entryX=0.36;entryY=0.991;entryDx=0;entryDy=0;entryPerimeter=0;" parent="1" source="QahmHyH51qg4NlwLbVIx-33" target="K_kFmx0mS9cXthyhGz04-6" edge="1">
          <mxGeometry relative="1" as="geometry" />
        </mxCell>
        <mxCell id="K_kFmx0mS9cXthyhGz04-9" value="管理" style="edgeLabel;html=1;align=center;verticalAlign=middle;resizable=0;points=[];" parent="K_kFmx0mS9cXthyhGz04-8" vertex="1" connectable="0">
          <mxGeometry x="-0.0884" relative="1" as="geometry">
            <mxPoint as="offset" />
          </mxGeometry>
        </mxCell>
        <mxCell id="QahmHyH51qg4NlwLbVIx-33" value="nexus-ctrol" style="rounded=0;whiteSpace=wrap;html=1;fillColor=#dae8fc;strokeColor=#6c8ebf;" parent="1" vertex="1">
          <mxGeometry x="130" y="395" width="240" height="70" as="geometry" />
        </mxCell>
        <mxCell id="QahmHyH51qg4NlwLbVIx-38" style="edgeStyle=orthogonalEdgeStyle;rounded=0;orthogonalLoop=1;jettySize=auto;html=1;entryX=0.5;entryY=1;entryDx=0;entryDy=0;" parent="1" source="QahmHyH51qg4NlwLbVIx-34" target="QahmHyH51qg4NlwLbVIx-10" edge="1">
          <mxGeometry relative="1" as="geometry" />
        </mxCell>
        <mxCell id="QahmHyH51qg4NlwLbVIx-34" value="nexus-ctrol" style="rounded=0;whiteSpace=wrap;html=1;fillColor=#dae8fc;strokeColor=#6c8ebf;" parent="1" vertex="1">
          <mxGeometry x="820" y="390" width="230" height="70" as="geometry" />
        </mxCell>
        <mxCell id="pj6_xXkc8qYkNO49AZSW-1" value="互联网大区" style="text;html=1;strokeColor=none;fillColor=none;align=center;verticalAlign=middle;whiteSpace=wrap;rounded=0;" parent="1" vertex="1">
          <mxGeometry x="237.5" y="10" width="95" height="30" as="geometry" />
        </mxCell>
        <mxCell id="pj6_xXkc8qYkNO49AZSW-2" value="信息内网大区" style="text;html=1;strokeColor=none;fillColor=none;align=center;verticalAlign=middle;whiteSpace=wrap;rounded=0;" parent="1" vertex="1">
          <mxGeometry x="880" y="10" width="95" height="30" as="geometry" />
        </mxCell>
        <mxCell id="K_kFmx0mS9cXthyhGz04-3" value="" style="edgeStyle=orthogonalEdgeStyle;rounded=0;orthogonalLoop=1;jettySize=auto;html=1;" parent="1" source="K_kFmx0mS9cXthyhGz04-1" target="QahmHyH51qg4NlwLbVIx-3" edge="1">
          <mxGeometry relative="1" as="geometry" />
        </mxCell>
        <mxCell id="K_kFmx0mS9cXthyhGz04-4" value="proxy" style="edgeLabel;html=1;align=center;verticalAlign=middle;resizable=0;points=[];" parent="K_kFmx0mS9cXthyhGz04-3" vertex="1" connectable="0">
          <mxGeometry x="0.0222" y="-1" relative="1" as="geometry">
            <mxPoint as="offset" />
          </mxGeometry>
        </mxCell>
        <mxCell id="K_kFmx0mS9cXthyhGz04-1" value="nexus1" style="rounded=0;whiteSpace=wrap;html=1;fillColor=#dae8fc;strokeColor=#6c8ebf;" parent="1" vertex="1">
          <mxGeometry x="370" y="232.5" width="160" height="70" as="geometry" />
        </mxCell>
        <mxCell id="K_kFmx0mS9cXthyhGz04-5" style="edgeStyle=orthogonalEdgeStyle;rounded=0;orthogonalLoop=1;jettySize=auto;html=1;entryX=0.5;entryY=1;entryDx=0;entryDy=0;" parent="1" source="K_kFmx0mS9cXthyhGz04-2" target="K_kFmx0mS9cXthyhGz04-1" edge="1">
          <mxGeometry relative="1" as="geometry" />
        </mxCell>
        <mxCell id="K_kFmx0mS9cXthyhGz04-10" value="访问" style="edgeLabel;html=1;align=center;verticalAlign=middle;resizable=0;points=[];" parent="K_kFmx0mS9cXthyhGz04-5" vertex="1" connectable="0">
          <mxGeometry x="-0.027" relative="1" as="geometry">
            <mxPoint as="offset" />
          </mxGeometry>
        </mxCell>
        <mxCell id="K_kFmx0mS9cXthyhGz04-2" value="" style="shape=umlActor;verticalLabelPosition=bottom;verticalAlign=top;html=1;outlineConnect=0;" parent="1" vertex="1">
          <mxGeometry x="435" y="395" width="30" height="60" as="geometry" />
        </mxCell>
        <mxCell id="K_kFmx0mS9cXthyhGz04-13" style="edgeStyle=orthogonalEdgeStyle;rounded=0;orthogonalLoop=1;jettySize=auto;html=1;entryX=1;entryY=0.5;entryDx=0;entryDy=0;" parent="1" source="K_kFmx0mS9cXthyhGz04-12" target="QahmHyH51qg4NlwLbVIx-10" edge="1">
          <mxGeometry relative="1" as="geometry" />
        </mxCell>
        <mxCell id="K_kFmx0mS9cXthyhGz04-14" value="访问" style="edgeLabel;html=1;align=center;verticalAlign=middle;resizable=0;points=[];" parent="K_kFmx0mS9cXthyhGz04-13" vertex="1" connectable="0">
          <mxGeometry x="0.0769" relative="1" as="geometry">
            <mxPoint as="offset" />
          </mxGeometry>
        </mxCell>
        <mxCell id="K_kFmx0mS9cXthyhGz04-12" value="" style="shape=umlActor;verticalLabelPosition=bottom;verticalAlign=top;html=1;outlineConnect=0;" parent="1" vertex="1">
          <mxGeometry x="1130" y="238" width="30" height="60" as="geometry" />
        </mxCell>
      </root>
    </mxGraphModel>
  </diagram>
  <diagram id="WOU57eoouNx9y4hYP6CM" name="第 3 页">
    <mxGraphModel dx="1773" dy="519" grid="1" gridSize="10" guides="1" tooltips="1" connect="1" arrows="1" fold="1" page="1" pageScale="1" pageWidth="827" pageHeight="1169" math="0" shadow="0">
      <root>
        <mxCell id="0" />
        <mxCell id="1" parent="0" />
        <mxCell id="1zDMS1WUmGiV32sWmFzV-1" value="" style="rounded=0;whiteSpace=wrap;html=1;fillColor=#f5f5f5;fontColor=#333333;strokeColor=#666666;" parent="1" vertex="1">
          <mxGeometry x="-60" y="50" width="910" height="470" as="geometry" />
        </mxCell>
        <mxCell id="UrFWmwUaJ-MyRSOAE_fS-12" value="proxy" style="edgeStyle=orthogonalEdgeStyle;rounded=0;orthogonalLoop=1;jettySize=auto;html=1;entryX=1;entryY=0.5;entryDx=0;entryDy=0;" edge="1" parent="1" source="1zDMS1WUmGiV32sWmFzV-2" target="UrFWmwUaJ-MyRSOAE_fS-4">
          <mxGeometry relative="1" as="geometry" />
        </mxCell>
        <mxCell id="UrFWmwUaJ-MyRSOAE_fS-13" value="proxy" style="edgeStyle=orthogonalEdgeStyle;rounded=0;orthogonalLoop=1;jettySize=auto;html=1;entryX=0.667;entryY=1.033;entryDx=0;entryDy=0;entryPerimeter=0;" edge="1" parent="1" source="1zDMS1WUmGiV32sWmFzV-2" target="1zDMS1WUmGiV32sWmFzV-4">
          <mxGeometry relative="1" as="geometry" />
        </mxCell>
        <mxCell id="1zDMS1WUmGiV32sWmFzV-2" value="nexus" style="rounded=0;whiteSpace=wrap;html=1;" parent="1" vertex="1">
          <mxGeometry x="170" y="267.5" width="160" height="56.25" as="geometry" />
        </mxCell>
        <mxCell id="1zDMS1WUmGiV32sWmFzV-6" style="edgeStyle=orthogonalEdgeStyle;rounded=0;orthogonalLoop=1;jettySize=auto;html=1;entryX=1;entryY=0.5;entryDx=0;entryDy=0;" parent="1" source="1zDMS1WUmGiV32sWmFzV-3" target="1zDMS1WUmGiV32sWmFzV-2" edge="1">
          <mxGeometry relative="1" as="geometry" />
        </mxCell>
        <mxCell id="1zDMS1WUmGiV32sWmFzV-7" value="proxy" style="edgeLabel;html=1;align=center;verticalAlign=middle;resizable=0;points=[];" parent="1zDMS1WUmGiV32sWmFzV-6" vertex="1" connectable="0">
          <mxGeometry x="-0.325" y="2" relative="1" as="geometry">
            <mxPoint x="-22" y="-4" as="offset" />
          </mxGeometry>
        </mxCell>
        <mxCell id="1zDMS1WUmGiV32sWmFzV-3" value="nexus" style="rounded=0;whiteSpace=wrap;html=1;" parent="1" vertex="1">
          <mxGeometry x="530" y="263.13" width="120" height="65" as="geometry" />
        </mxCell>
        <mxCell id="1zDMS1WUmGiV32sWmFzV-4" value="&lt;span style=&quot;color: rgba(0, 0, 0, 0); font-family: monospace; font-size: 0px; text-align: start;&quot;&gt;%3CmxGraphModel%3E%3Croot%3E%3CmxCell%20id%3D%220%22%2F%3E%3CmxCell%20id%3D%221%22%20parent%3D%220%22%2F%3E%3CmxCell%20id%3D%222%22%20value%3D%22maven%22%20style%3D%22rounded%3D0%3BwhiteSpace%3Dwrap%3Bhtml%3D1%3B%22%20vertex%3D%221%22%20parent%3D%221%22%3E%3CmxGeometry%20x%3D%22-82.5%22%20y%3D%2240%22%20width%3D%22105%22%20height%3D%2250%22%20as%3D%22geometry%22%2F%3E%3C%2FmxCell%3E%3CmxCell%20id%3D%223%22%20value%3D%22npm%22%20style%3D%22rounded%3D0%3BwhiteSpace%3Dwrap%3Bhtml%3D1%3B%22%20vertex%3D%221%22%20parent%3D%221%22%3E%3CmxGeometry%20x%3D%22-82.5%22%20y%3D%22100%22%20width%3D%22105%22%20height%3D%2250%22%20as%3D%22geometry%22%2F%3E%3C%2FmxCell%3E%3CmxCell%20id%3D%224%22%20value%3D%22pypi%22%20style%3D%22rounded%3D0%3BwhiteSpace%3Dwrap%3Bhtml%3D1%3B%22%20vertex%3D%221%22%20parent%3D%221%22%3E%3CmxGeometry%20x%3D%22-82.5%22%20y%3D%22160%22%20width%3D%22105%22%20height%3D%2250%22%20as%3D%22geometry%22%2F%3E%3C%2FmxCell%3E%3CmxCell%20id%3D%225%22%20value%3D%22gomod%22%20style%3D%22rounded%3D0%3BwhiteSpace%3Dwrap%3Bhtml%3D1%3B%22%20vertex%3D%221%22%20parent%3D%221%22%3E%3CmxGeometry%20x%3D%22-82.5%22%20y%3D%22220%22%20width%3D%22105%22%20height%3D%2250%22%20as%3D%22geometry%22%2F%3E%3C%2FmxCell%3E%3CmxCell%20id%3D%226%22%20value%3D%22docker%22%20style%3D%22rounded%3D0%3BwhiteSpace%3Dwrap%3Bhtml%3D1%3B%22%20vertex%3D%221%22%20parent%3D%221%22%3E%3CmxGeometry%20x%3D%22-82.5%22%20y%3D%22280%22%20width%3D%22105%22%20height%3D%2250%22%20as%3D%22geometry%22%2F%3E%3C%2FmxCell%3E%3CmxCell%20id%3D%227%22%20value%3D%22helm%22%20style%3D%22rounded%3D0%3BwhiteSpace%3Dwrap%3Bhtml%3D1%3B%22%20vertex%3D%221%22%20parent%3D%221%22%3E%3CmxGeometry%20x%3D%22-82.5%22%20y%3D%22340%22%20width%3D%22105%22%20height%3D%2250%22%20as%3D%22geometry%22%2F%3E%3C%2FmxCell%3E%3CmxCell%20id%3D%228%22%20value%3D%22yum%22%20style%3D%22rounded%3D0%3BwhiteSpace%3Dwrap%3Bhtml%3D1%3B%22%20vertex%3D%221%22%20parent%3D%221%22%3E%3CmxGeometry%20x%3D%22-82.5%22%20y%3D%22400%22%20width%3D%22105%22%20height%3D%2250%22%20as%3D%22geometry%22%2F%3E%3C%2FmxCell%3E%3CmxCell%20id%3D%229%22%20value%3D%22apt%22%20style%3D%22rounded%3D0%3BwhiteSpace%3Dwrap%3Bhtml%3D1%3B%22%20vertex%3D%221%22%20parent%3D%221%22%3E%3CmxGeometry%20x%3D%22-82.5%22%20y%3D%22460%22%20width%3D%22105%22%20height%3D%2250%22%20as%3D%22geometry%22%2F%3E%3C%2FmxCell%3E%3C%2Froot%3E%3C%2FmxGraphModel%3E&lt;/span&gt;" style="rounded=0;whiteSpace=wrap;html=1;fillColor=#d5e8d4;strokeColor=#82b366;" parent="1" vertex="1">
          <mxGeometry x="-50" y="80" width="450" height="140" as="geometry" />
        </mxCell>
        <mxCell id="1zDMS1WUmGiV32sWmFzV-5" value="" style="endArrow=none;html=1;rounded=0;exitX=0.584;exitY=0.998;exitDx=0;exitDy=0;exitPerimeter=0;entryX=0.58;entryY=0.001;entryDx=0;entryDy=0;entryPerimeter=0;" parent="1" source="1zDMS1WUmGiV32sWmFzV-1" target="1zDMS1WUmGiV32sWmFzV-1" edge="1">
          <mxGeometry width="50" height="50" relative="1" as="geometry">
            <mxPoint x="440" y="150" as="sourcePoint" />
            <mxPoint x="440" y="70" as="targetPoint" />
          </mxGeometry>
        </mxCell>
        <mxCell id="1zDMS1WUmGiV32sWmFzV-8" value="网闸" style="edgeLabel;html=1;align=center;verticalAlign=middle;resizable=0;points=[];" parent="1zDMS1WUmGiV32sWmFzV-5" vertex="1" connectable="0">
          <mxGeometry x="0.3497" relative="1" as="geometry">
            <mxPoint as="offset" />
          </mxGeometry>
        </mxCell>
        <mxCell id="FQmASjJbD7Kvc8l0QKLp-1" value="yum" style="rounded=0;whiteSpace=wrap;html=1;" parent="1" vertex="1">
          <mxGeometry x="70" y="110" width="90" height="40" as="geometry" />
        </mxCell>
        <mxCell id="FQmASjJbD7Kvc8l0QKLp-2" value="apt" style="rounded=0;whiteSpace=wrap;html=1;" parent="1" vertex="1">
          <mxGeometry x="70" y="170" width="90" height="40" as="geometry" />
        </mxCell>
        <mxCell id="FQmASjJbD7Kvc8l0QKLp-3" value="npm" style="rounded=0;whiteSpace=wrap;html=1;" parent="1" vertex="1">
          <mxGeometry x="-30" y="170" width="90" height="40" as="geometry" />
        </mxCell>
        <mxCell id="FQmASjJbD7Kvc8l0QKLp-4" value="maven" style="rounded=0;whiteSpace=wrap;html=1;" parent="1" vertex="1">
          <mxGeometry x="190" y="110" width="90" height="40" as="geometry" />
        </mxCell>
        <mxCell id="FQmASjJbD7Kvc8l0QKLp-5" value="gomod" style="rounded=0;whiteSpace=wrap;html=1;" parent="1" vertex="1">
          <mxGeometry x="190" y="170" width="90" height="40" as="geometry" />
        </mxCell>
        <mxCell id="FQmASjJbD7Kvc8l0QKLp-6" value="pypi" style="rounded=0;whiteSpace=wrap;html=1;" parent="1" vertex="1">
          <mxGeometry x="-30" y="110" width="90" height="40" as="geometry" />
        </mxCell>
        <mxCell id="FQmASjJbD7Kvc8l0QKLp-7" value="docker" style="rounded=0;whiteSpace=wrap;html=1;" parent="1" vertex="1">
          <mxGeometry x="300" y="110" width="90" height="40" as="geometry" />
        </mxCell>
        <mxCell id="N-FH-MzzNck6woZPuo4K-1" value="helm" style="rounded=0;whiteSpace=wrap;html=1;" parent="1" vertex="1">
          <mxGeometry x="300" y="170" width="90" height="40" as="geometry" />
        </mxCell>
        <mxCell id="N-FH-MzzNck6woZPuo4K-4" style="edgeStyle=orthogonalEdgeStyle;rounded=0;orthogonalLoop=1;jettySize=auto;html=1;entryX=0.5;entryY=1;entryDx=0;entryDy=0;" parent="1" source="N-FH-MzzNck6woZPuo4K-2" target="1zDMS1WUmGiV32sWmFzV-2" edge="1">
          <mxGeometry relative="1" as="geometry">
            <Array as="points">
              <mxPoint x="150" y="370" />
              <mxPoint x="250" y="370" />
            </Array>
          </mxGeometry>
        </mxCell>
        <mxCell id="UrFWmwUaJ-MyRSOAE_fS-11" value="管理" style="edgeLabel;html=1;align=center;verticalAlign=middle;resizable=0;points=[];" vertex="1" connectable="0" parent="N-FH-MzzNck6woZPuo4K-4">
          <mxGeometry x="-0.04" y="-1" relative="1" as="geometry">
            <mxPoint x="-46" y="27" as="offset" />
          </mxGeometry>
        </mxCell>
        <mxCell id="UrFWmwUaJ-MyRSOAE_fS-14" style="edgeStyle=orthogonalEdgeStyle;rounded=0;orthogonalLoop=1;jettySize=auto;html=1;" edge="1" parent="1" source="N-FH-MzzNck6woZPuo4K-2" target="UrFWmwUaJ-MyRSOAE_fS-4">
          <mxGeometry relative="1" as="geometry">
            <Array as="points">
              <mxPoint x="150" y="370" />
              <mxPoint x="40" y="370" />
            </Array>
          </mxGeometry>
        </mxCell>
        <mxCell id="N-FH-MzzNck6woZPuo4K-2" value="nexus-ctrl" style="rounded=0;whiteSpace=wrap;html=1;" parent="1" vertex="1">
          <mxGeometry x="80" y="420" width="140" height="50" as="geometry" />
        </mxCell>
        <mxCell id="N-FH-MzzNck6woZPuo4K-6" style="edgeStyle=orthogonalEdgeStyle;rounded=0;orthogonalLoop=1;jettySize=auto;html=1;entryX=0.5;entryY=1;entryDx=0;entryDy=0;" parent="1" source="N-FH-MzzNck6woZPuo4K-5" target="1zDMS1WUmGiV32sWmFzV-3" edge="1">
          <mxGeometry relative="1" as="geometry">
            <Array as="points">
              <mxPoint x="675" y="360" />
              <mxPoint x="590" y="360" />
            </Array>
          </mxGeometry>
        </mxCell>
        <mxCell id="UrFWmwUaJ-MyRSOAE_fS-16" style="edgeStyle=orthogonalEdgeStyle;rounded=0;orthogonalLoop=1;jettySize=auto;html=1;entryX=0.5;entryY=1;entryDx=0;entryDy=0;" edge="1" parent="1" source="N-FH-MzzNck6woZPuo4K-5" target="UrFWmwUaJ-MyRSOAE_fS-7">
          <mxGeometry relative="1" as="geometry">
            <Array as="points">
              <mxPoint x="675" y="360" />
              <mxPoint x="767" y="360" />
            </Array>
          </mxGeometry>
        </mxCell>
        <mxCell id="UrFWmwUaJ-MyRSOAE_fS-17" value="管理" style="edgeLabel;html=1;align=center;verticalAlign=middle;resizable=0;points=[];" vertex="1" connectable="0" parent="UrFWmwUaJ-MyRSOAE_fS-16">
          <mxGeometry x="-0.7682" y="3" relative="1" as="geometry">
            <mxPoint y="1" as="offset" />
          </mxGeometry>
        </mxCell>
        <mxCell id="N-FH-MzzNck6woZPuo4K-5" value="nexus-ctrl" style="rounded=0;whiteSpace=wrap;html=1;" parent="1" vertex="1">
          <mxGeometry x="600" y="400" width="150" height="50" as="geometry" />
        </mxCell>
        <mxCell id="N-FH-MzzNck6woZPuo4K-11" value="互联网大区" style="text;html=1;strokeColor=none;fillColor=none;align=center;verticalAlign=middle;whiteSpace=wrap;rounded=0;" parent="1" vertex="1">
          <mxGeometry x="135" y="50" width="80" height="30" as="geometry" />
        </mxCell>
        <mxCell id="N-FH-MzzNck6woZPuo4K-12" value="信息内网大区" style="text;html=1;strokeColor=none;fillColor=none;align=center;verticalAlign=middle;whiteSpace=wrap;rounded=0;" parent="1" vertex="1">
          <mxGeometry x="570" y="90" width="80" height="30" as="geometry" />
        </mxCell>
        <mxCell id="UrFWmwUaJ-MyRSOAE_fS-4" value="harbor" style="rounded=0;whiteSpace=wrap;html=1;strokeWidth=1;" vertex="1" parent="1">
          <mxGeometry x="-20" y="267.5" width="120" height="60" as="geometry" />
        </mxCell>
        <mxCell id="UrFWmwUaJ-MyRSOAE_fS-7" value="harbor" style="rounded=0;whiteSpace=wrap;html=1;strokeWidth=1;" vertex="1" parent="1">
          <mxGeometry x="707" y="263.75" width="120" height="60" as="geometry" />
        </mxCell>
        <mxCell id="UrFWmwUaJ-MyRSOAE_fS-15" value="公网代理库" style="text;html=1;strokeColor=none;fillColor=none;align=center;verticalAlign=middle;whiteSpace=wrap;rounded=0;" vertex="1" parent="1">
          <mxGeometry x="130" y="80" width="85" height="30" as="geometry" />
        </mxCell>
        <mxCell id="UrFWmwUaJ-MyRSOAE_fS-19" style="edgeStyle=orthogonalEdgeStyle;rounded=0;orthogonalLoop=1;jettySize=auto;html=1;entryX=0.558;entryY=0.006;entryDx=0;entryDy=0;entryPerimeter=0;" edge="1" parent="1" source="UrFWmwUaJ-MyRSOAE_fS-18" target="1zDMS1WUmGiV32sWmFzV-3">
          <mxGeometry relative="1" as="geometry">
            <Array as="points">
              <mxPoint x="675" y="230" />
              <mxPoint x="597" y="230" />
            </Array>
          </mxGeometry>
        </mxCell>
        <mxCell id="UrFWmwUaJ-MyRSOAE_fS-20" style="edgeStyle=orthogonalEdgeStyle;rounded=0;orthogonalLoop=1;jettySize=auto;html=1;entryX=0.5;entryY=0;entryDx=0;entryDy=0;" edge="1" parent="1" source="UrFWmwUaJ-MyRSOAE_fS-18" target="UrFWmwUaJ-MyRSOAE_fS-7">
          <mxGeometry relative="1" as="geometry">
            <Array as="points">
              <mxPoint x="675" y="230" />
              <mxPoint x="767" y="230" />
            </Array>
          </mxGeometry>
        </mxCell>
        <mxCell id="UrFWmwUaJ-MyRSOAE_fS-23" value="访问" style="edgeLabel;html=1;align=center;verticalAlign=middle;resizable=0;points=[];" vertex="1" connectable="0" parent="UrFWmwUaJ-MyRSOAE_fS-20">
          <mxGeometry x="-0.7768" y="1" relative="1" as="geometry">
            <mxPoint y="1" as="offset" />
          </mxGeometry>
        </mxCell>
        <mxCell id="UrFWmwUaJ-MyRSOAE_fS-18" value="" style="shape=umlActor;verticalLabelPosition=bottom;verticalAlign=top;html=1;outlineConnect=0;strokeWidth=1;" vertex="1" parent="1">
          <mxGeometry x="660" y="140" width="30" height="50" as="geometry" />
        </mxCell>
      </root>
    </mxGraphModel>
  </diagram>
  <diagram id="9DaGF4itnwLYJcL-RHgo" name="第 4 页">
    <mxGraphModel dx="2013" dy="1688" grid="1" gridSize="10" guides="1" tooltips="1" connect="1" arrows="1" fold="1" page="1" pageScale="1" pageWidth="827" pageHeight="1169" math="0" shadow="0">
      <root>
        <mxCell id="0" />
        <mxCell id="1" parent="0" />
        <mxCell id="7AEnu03Ya3wQ5rmOM1C8-1" value="" style="rounded=0;whiteSpace=wrap;html=1;" parent="1" vertex="1">
          <mxGeometry x="-100" y="-20" width="1370" height="560" as="geometry" />
        </mxCell>
        <mxCell id="7AEnu03Ya3wQ5rmOM1C8-2" value="网闸" style="rounded=0;whiteSpace=wrap;html=1;fillColor=#f5f5f5;fontColor=#333333;strokeColor=#666666;" parent="1" vertex="1">
          <mxGeometry x="590" y="10" width="90" height="480" as="geometry" />
        </mxCell>
        <mxCell id="7AEnu03Ya3wQ5rmOM1C8-4" value="nexus" style="rounded=0;whiteSpace=wrap;html=1;fillColor=#b1ddf0;strokeColor=#10739e;" parent="1" vertex="1">
          <mxGeometry x="205" y="233" width="160" height="70" as="geometry" />
        </mxCell>
        <mxCell id="7AEnu03Ya3wQ5rmOM1C8-5" style="edgeStyle=orthogonalEdgeStyle;rounded=0;orthogonalLoop=1;jettySize=auto;html=1;entryX=0.5;entryY=0;entryDx=0;entryDy=0;" parent="1" source="7AEnu03Ya3wQ5rmOM1C8-9" target="7AEnu03Ya3wQ5rmOM1C8-4" edge="1">
          <mxGeometry relative="1" as="geometry" />
        </mxCell>
        <mxCell id="7AEnu03Ya3wQ5rmOM1C8-6" value="读取全量存储文件" style="edgeLabel;html=1;align=center;verticalAlign=middle;resizable=0;points=[];" parent="7AEnu03Ya3wQ5rmOM1C8-5" vertex="1" connectable="0">
          <mxGeometry x="-0.1174" y="-2" relative="1" as="geometry">
            <mxPoint as="offset" />
          </mxGeometry>
        </mxCell>
        <mxCell id="7AEnu03Ya3wQ5rmOM1C8-7" value="" style="edgeStyle=orthogonalEdgeStyle;rounded=0;orthogonalLoop=1;jettySize=auto;html=1;entryX=0;entryY=0.25;entryDx=0;entryDy=0;" parent="1" source="7AEnu03Ya3wQ5rmOM1C8-9" target="7AEnu03Ya3wQ5rmOM1C8-2" edge="1">
          <mxGeometry relative="1" as="geometry" />
        </mxCell>
        <mxCell id="7AEnu03Ya3wQ5rmOM1C8-8" value="文件同步" style="edgeLabel;html=1;align=center;verticalAlign=middle;resizable=0;points=[];" parent="7AEnu03Ya3wQ5rmOM1C8-7" vertex="1" connectable="0">
          <mxGeometry x="-0.2503" y="-3" relative="1" as="geometry">
            <mxPoint as="offset" />
          </mxGeometry>
        </mxCell>
        <mxCell id="7AEnu03Ya3wQ5rmOM1C8-9" value="file-sync" style="rounded=0;whiteSpace=wrap;html=1;fillColor=#d5e8d4;strokeColor=#82b366;" parent="1" vertex="1">
          <mxGeometry x="225" y="100" width="120" height="60" as="geometry" />
        </mxCell>
        <mxCell id="7AEnu03Ya3wQ5rmOM1C8-10" value="文件监听" style="edgeStyle=orthogonalEdgeStyle;rounded=0;orthogonalLoop=1;jettySize=auto;html=1;entryX=1;entryY=0.25;entryDx=0;entryDy=0;" parent="1" source="7AEnu03Ya3wQ5rmOM1C8-13" target="7AEnu03Ya3wQ5rmOM1C8-2" edge="1">
          <mxGeometry relative="1" as="geometry" />
        </mxCell>
        <mxCell id="7AEnu03Ya3wQ5rmOM1C8-45" value="" style="rounded=0;whiteSpace=wrap;html=1;fillColor=#eeeeee;strokeColor=#36393d;" parent="1" vertex="1">
          <mxGeometry x="771" y="195" width="470" height="130" as="geometry" />
        </mxCell>
        <mxCell id="7AEnu03Ya3wQ5rmOM1C8-57" style="edgeStyle=orthogonalEdgeStyle;rounded=0;orthogonalLoop=1;jettySize=auto;html=1;entryX=0.5;entryY=0;entryDx=0;entryDy=0;" parent="1" source="7AEnu03Ya3wQ5rmOM1C8-13" target="7AEnu03Ya3wQ5rmOM1C8-46" edge="1">
          <mxGeometry relative="1" as="geometry" />
        </mxCell>
        <mxCell id="7AEnu03Ya3wQ5rmOM1C8-58" value="上传全量文件" style="edgeLabel;html=1;align=center;verticalAlign=middle;resizable=0;points=[];" parent="7AEnu03Ya3wQ5rmOM1C8-57" vertex="1" connectable="0">
          <mxGeometry x="-0.4207" relative="1" as="geometry">
            <mxPoint as="offset" />
          </mxGeometry>
        </mxCell>
        <mxCell id="7AEnu03Ya3wQ5rmOM1C8-13" value="file-sync" style="rounded=0;whiteSpace=wrap;html=1;fillColor=#d5e8d4;strokeColor=#82b366;" parent="1" vertex="1">
          <mxGeometry x="835" y="100" width="110" height="60" as="geometry" />
        </mxCell>
        <mxCell id="7AEnu03Ya3wQ5rmOM1C8-15" style="edgeStyle=orthogonalEdgeStyle;rounded=0;orthogonalLoop=1;jettySize=auto;html=1;" parent="1" source="7AEnu03Ya3wQ5rmOM1C8-17" target="7AEnu03Ya3wQ5rmOM1C8-4" edge="1">
          <mxGeometry relative="1" as="geometry" />
        </mxCell>
        <mxCell id="7AEnu03Ya3wQ5rmOM1C8-16" value="同步代理库" style="edgeLabel;html=1;align=center;verticalAlign=middle;resizable=0;points=[];" parent="7AEnu03Ya3wQ5rmOM1C8-15" vertex="1" connectable="0">
          <mxGeometry x="-0.1231" relative="1" as="geometry">
            <mxPoint as="offset" />
          </mxGeometry>
        </mxCell>
        <mxCell id="7AEnu03Ya3wQ5rmOM1C8-17" value="" style="rounded=0;whiteSpace=wrap;html=1;fillColor=#FFFFFF;strokeColor=#36393d;" parent="1" vertex="1">
          <mxGeometry x="-90" y="10" width="120" height="515" as="geometry" />
        </mxCell>
        <mxCell id="7AEnu03Ya3wQ5rmOM1C8-18" value="maven" style="rounded=0;whiteSpace=wrap;html=1;" parent="1" vertex="1">
          <mxGeometry x="-82.5" y="40" width="105" height="50" as="geometry" />
        </mxCell>
        <mxCell id="7AEnu03Ya3wQ5rmOM1C8-19" value="repo-sync-job" style="text;html=1;strokeColor=none;fillColor=none;align=center;verticalAlign=middle;whiteSpace=wrap;rounded=0;" parent="1" vertex="1">
          <mxGeometry x="-75" y="10" width="90" height="30" as="geometry" />
        </mxCell>
        <mxCell id="7AEnu03Ya3wQ5rmOM1C8-20" value="npm" style="rounded=0;whiteSpace=wrap;html=1;" parent="1" vertex="1">
          <mxGeometry x="-82.5" y="100" width="105" height="50" as="geometry" />
        </mxCell>
        <mxCell id="7AEnu03Ya3wQ5rmOM1C8-21" value="pypi" style="rounded=0;whiteSpace=wrap;html=1;" parent="1" vertex="1">
          <mxGeometry x="-82.5" y="160" width="105" height="50" as="geometry" />
        </mxCell>
        <mxCell id="7AEnu03Ya3wQ5rmOM1C8-22" value="gomod" style="rounded=0;whiteSpace=wrap;html=1;" parent="1" vertex="1">
          <mxGeometry x="-82.5" y="220" width="105" height="50" as="geometry" />
        </mxCell>
        <mxCell id="7AEnu03Ya3wQ5rmOM1C8-23" value="docker" style="rounded=0;whiteSpace=wrap;html=1;" parent="1" vertex="1">
          <mxGeometry x="-82.5" y="280" width="105" height="50" as="geometry" />
        </mxCell>
        <mxCell id="7AEnu03Ya3wQ5rmOM1C8-24" value="helm" style="rounded=0;whiteSpace=wrap;html=1;" parent="1" vertex="1">
          <mxGeometry x="-82.5" y="340" width="105" height="50" as="geometry" />
        </mxCell>
        <mxCell id="7AEnu03Ya3wQ5rmOM1C8-25" value="yum" style="rounded=0;whiteSpace=wrap;html=1;" parent="1" vertex="1">
          <mxGeometry x="-82.5" y="400" width="105" height="50" as="geometry" />
        </mxCell>
        <mxCell id="7AEnu03Ya3wQ5rmOM1C8-26" value="apt" style="rounded=0;whiteSpace=wrap;html=1;" parent="1" vertex="1">
          <mxGeometry x="-82.5" y="460" width="105" height="50" as="geometry" />
        </mxCell>
        <mxCell id="7AEnu03Ya3wQ5rmOM1C8-27" style="edgeStyle=orthogonalEdgeStyle;rounded=0;orthogonalLoop=1;jettySize=auto;html=1;entryX=0.5;entryY=1;entryDx=0;entryDy=0;" parent="1" source="7AEnu03Ya3wQ5rmOM1C8-29" target="7AEnu03Ya3wQ5rmOM1C8-4" edge="1">
          <mxGeometry relative="1" as="geometry">
            <mxPoint x="249.19999999999982" y="319.01" as="targetPoint" />
          </mxGeometry>
        </mxCell>
        <mxCell id="7AEnu03Ya3wQ5rmOM1C8-28" value="管理" style="edgeLabel;html=1;align=center;verticalAlign=middle;resizable=0;points=[];" parent="7AEnu03Ya3wQ5rmOM1C8-27" vertex="1" connectable="0">
          <mxGeometry x="-0.0884" relative="1" as="geometry">
            <mxPoint as="offset" />
          </mxGeometry>
        </mxCell>
        <mxCell id="7AEnu03Ya3wQ5rmOM1C8-29" value="nexus-ctrol" style="rounded=0;whiteSpace=wrap;html=1;fillColor=#dae8fc;strokeColor=#6c8ebf;" parent="1" vertex="1">
          <mxGeometry x="165" y="390" width="240" height="70" as="geometry" />
        </mxCell>
        <mxCell id="7AEnu03Ya3wQ5rmOM1C8-48" style="edgeStyle=orthogonalEdgeStyle;rounded=0;orthogonalLoop=1;jettySize=auto;html=1;entryX=0.306;entryY=1.008;entryDx=0;entryDy=0;entryPerimeter=0;" parent="1" source="7AEnu03Ya3wQ5rmOM1C8-31" target="7AEnu03Ya3wQ5rmOM1C8-45" edge="1">
          <mxGeometry relative="1" as="geometry" />
        </mxCell>
        <mxCell id="7AEnu03Ya3wQ5rmOM1C8-49" value="管理" style="edgeLabel;html=1;align=center;verticalAlign=middle;resizable=0;points=[];" parent="7AEnu03Ya3wQ5rmOM1C8-48" vertex="1" connectable="0">
          <mxGeometry x="0.0511" y="-1" relative="1" as="geometry">
            <mxPoint as="offset" />
          </mxGeometry>
        </mxCell>
        <mxCell id="7AEnu03Ya3wQ5rmOM1C8-31" value="nexus-ctrol" style="rounded=0;whiteSpace=wrap;html=1;fillColor=#dae8fc;strokeColor=#6c8ebf;" parent="1" vertex="1">
          <mxGeometry x="800" y="390" width="230" height="70" as="geometry" />
        </mxCell>
        <mxCell id="7AEnu03Ya3wQ5rmOM1C8-32" value="互联网大区" style="text;html=1;strokeColor=none;fillColor=none;align=center;verticalAlign=middle;whiteSpace=wrap;rounded=0;" parent="1" vertex="1">
          <mxGeometry x="237.5" y="10" width="95" height="30" as="geometry" />
        </mxCell>
        <mxCell id="7AEnu03Ya3wQ5rmOM1C8-33" value="信息内网大区" style="text;html=1;strokeColor=none;fillColor=none;align=center;verticalAlign=middle;whiteSpace=wrap;rounded=0;" parent="1" vertex="1">
          <mxGeometry x="880" y="10" width="95" height="30" as="geometry" />
        </mxCell>
        <mxCell id="7AEnu03Ya3wQ5rmOM1C8-37" style="edgeStyle=orthogonalEdgeStyle;rounded=0;orthogonalLoop=1;jettySize=auto;html=1;entryX=1;entryY=0.5;entryDx=0;entryDy=0;" parent="1" source="7AEnu03Ya3wQ5rmOM1C8-39" target="7AEnu03Ya3wQ5rmOM1C8-4" edge="1">
          <mxGeometry relative="1" as="geometry">
            <mxPoint x="450" y="302.5" as="targetPoint" />
          </mxGeometry>
        </mxCell>
        <mxCell id="7AEnu03Ya3wQ5rmOM1C8-38" value="访问" style="edgeLabel;html=1;align=center;verticalAlign=middle;resizable=0;points=[];" parent="7AEnu03Ya3wQ5rmOM1C8-37" vertex="1" connectable="0">
          <mxGeometry x="-0.027" relative="1" as="geometry">
            <mxPoint as="offset" />
          </mxGeometry>
        </mxCell>
        <mxCell id="7AEnu03Ya3wQ5rmOM1C8-39" value="" style="shape=umlActor;verticalLabelPosition=bottom;verticalAlign=top;html=1;outlineConnect=0;" parent="1" vertex="1">
          <mxGeometry x="490" y="238" width="30" height="60" as="geometry" />
        </mxCell>
        <mxCell id="7AEnu03Ya3wQ5rmOM1C8-47" value="proxy" style="edgeStyle=orthogonalEdgeStyle;rounded=0;orthogonalLoop=1;jettySize=auto;html=1;entryX=1;entryY=0.5;entryDx=0;entryDy=0;" parent="1" source="7AEnu03Ya3wQ5rmOM1C8-43" target="7AEnu03Ya3wQ5rmOM1C8-46" edge="1">
          <mxGeometry relative="1" as="geometry" />
        </mxCell>
        <mxCell id="7AEnu03Ya3wQ5rmOM1C8-43" value="nexus2" style="rounded=0;whiteSpace=wrap;html=1;fillColor=#cce5ff;strokeColor=#36393d;" parent="1" vertex="1">
          <mxGeometry x="1080" y="233" width="150" height="70" as="geometry" />
        </mxCell>
        <mxCell id="7AEnu03Ya3wQ5rmOM1C8-46" value="nexus1" style="rounded=0;whiteSpace=wrap;html=1;fillColor=#b1ddf0;strokeColor=#10739e;" parent="1" vertex="1">
          <mxGeometry x="805" y="232.5" width="170" height="70" as="geometry" />
        </mxCell>
        <mxCell id="7AEnu03Ya3wQ5rmOM1C8-51" style="edgeStyle=orthogonalEdgeStyle;rounded=0;orthogonalLoop=1;jettySize=auto;html=1;entryX=0.5;entryY=1;entryDx=0;entryDy=0;" parent="1" source="7AEnu03Ya3wQ5rmOM1C8-50" target="7AEnu03Ya3wQ5rmOM1C8-43" edge="1">
          <mxGeometry relative="1" as="geometry" />
        </mxCell>
        <mxCell id="7AEnu03Ya3wQ5rmOM1C8-54" value="访问" style="edgeLabel;html=1;align=center;verticalAlign=middle;resizable=0;points=[];" parent="7AEnu03Ya3wQ5rmOM1C8-51" vertex="1" connectable="0">
          <mxGeometry x="-0.0093" y="-2" relative="1" as="geometry">
            <mxPoint as="offset" />
          </mxGeometry>
        </mxCell>
        <mxCell id="7AEnu03Ya3wQ5rmOM1C8-50" value="Actor" style="shape=umlActor;verticalLabelPosition=bottom;verticalAlign=top;html=1;outlineConnect=0;" parent="1" vertex="1">
          <mxGeometry x="1140" y="410" width="30" height="40" as="geometry" />
        </mxCell>
      </root>
    </mxGraphModel>
  </diagram>
  <diagram id="CYA8hL7Ytyf-uNE2X87p" name="第 5 页">
    <mxGraphModel dx="1186" dy="1688" grid="1" gridSize="10" guides="1" tooltips="1" connect="1" arrows="1" fold="1" page="1" pageScale="1" pageWidth="827" pageHeight="1169" math="0" shadow="0">
      <root>
        <mxCell id="0" />
        <mxCell id="1" parent="0" />
        <mxCell id="WHrjqcX6fxr1J6hnhTvD-51" value="" style="rounded=0;whiteSpace=wrap;html=1;" parent="1" vertex="1">
          <mxGeometry x="40" y="-40" width="990" height="380" as="geometry" />
        </mxCell>
        <mxCell id="WHrjqcX6fxr1J6hnhTvD-9" style="edgeStyle=orthogonalEdgeStyle;rounded=0;orthogonalLoop=1;jettySize=auto;html=1;entryX=0;entryY=0.5;entryDx=0;entryDy=0;exitX=1.011;exitY=0.575;exitDx=0;exitDy=0;exitPerimeter=0;" parent="1" edge="1">
          <mxGeometry relative="1" as="geometry">
            <mxPoint x="130.96657000000005" y="116.5" as="sourcePoint" />
            <mxPoint x="370" y="150" as="targetPoint" />
            <Array as="points">
              <mxPoint x="131" y="115" />
              <mxPoint x="230" y="115" />
              <mxPoint x="230" y="150" />
            </Array>
          </mxGeometry>
        </mxCell>
        <mxCell id="WHrjqcX6fxr1J6hnhTvD-7" style="edgeStyle=orthogonalEdgeStyle;rounded=0;orthogonalLoop=1;jettySize=auto;html=1;exitX=1;exitY=0.5;exitDx=0;exitDy=0;exitPerimeter=0;entryX=0;entryY=0.5;entryDx=0;entryDy=0;" parent="1" source="WHrjqcX6fxr1J6hnhTvD-2" edge="1">
          <mxGeometry relative="1" as="geometry">
            <mxPoint x="370" y="150" as="targetPoint" />
            <Array as="points">
              <mxPoint x="230" y="235" />
              <mxPoint x="230" y="150" />
            </Array>
          </mxGeometry>
        </mxCell>
        <mxCell id="WHrjqcX6fxr1J6hnhTvD-11" value="对比唯一id" style="edgeLabel;html=1;align=center;verticalAlign=middle;resizable=0;points=[];" parent="WHrjqcX6fxr1J6hnhTvD-7" vertex="1" connectable="0">
          <mxGeometry x="0.5579" y="1" relative="1" as="geometry">
            <mxPoint y="1" as="offset" />
          </mxGeometry>
        </mxCell>
        <mxCell id="WHrjqcX6fxr1J6hnhTvD-2" value="db" style="shape=cylinder3;whiteSpace=wrap;html=1;boundedLbl=1;backgroundOutline=1;size=15;" parent="1" vertex="1">
          <mxGeometry x="60" y="195" width="60" height="80" as="geometry" />
        </mxCell>
        <mxCell id="WHrjqcX6fxr1J6hnhTvD-42" style="edgeStyle=orthogonalEdgeStyle;rounded=0;orthogonalLoop=1;jettySize=auto;html=1;entryX=0;entryY=0.5;entryDx=0;entryDy=0;" parent="1" source="WHrjqcX6fxr1J6hnhTvD-12" target="WHrjqcX6fxr1J6hnhTvD-38" edge="1">
          <mxGeometry relative="1" as="geometry" />
        </mxCell>
        <mxCell id="WHrjqcX6fxr1J6hnhTvD-53" value="download" style="edgeLabel;html=1;align=center;verticalAlign=middle;resizable=0;points=[];" parent="WHrjqcX6fxr1J6hnhTvD-42" vertex="1" connectable="0">
          <mxGeometry x="-0.575" y="1" relative="1" as="geometry">
            <mxPoint x="36" y="1" as="offset" />
          </mxGeometry>
        </mxCell>
        <mxCell id="WHrjqcX6fxr1J6hnhTvD-12" value="网闸" style="rounded=0;whiteSpace=wrap;html=1;" parent="1" vertex="1">
          <mxGeometry x="520" y="-30" width="90" height="360" as="geometry" />
        </mxCell>
        <mxCell id="WHrjqcX6fxr1J6hnhTvD-35" style="edgeStyle=orthogonalEdgeStyle;rounded=0;orthogonalLoop=1;jettySize=auto;html=1;entryX=0;entryY=0.5;entryDx=0;entryDy=0;" parent="1" source="WHrjqcX6fxr1J6hnhTvD-26" target="WHrjqcX6fxr1J6hnhTvD-12" edge="1">
          <mxGeometry relative="1" as="geometry" />
        </mxCell>
        <mxCell id="WHrjqcX6fxr1J6hnhTvD-36" value="upload" style="edgeLabel;html=1;align=center;verticalAlign=middle;resizable=0;points=[];" parent="WHrjqcX6fxr1J6hnhTvD-35" vertex="1" connectable="0">
          <mxGeometry x="-0.0829" relative="1" as="geometry">
            <mxPoint y="1" as="offset" />
          </mxGeometry>
        </mxCell>
        <mxCell id="WHrjqcX6fxr1J6hnhTvD-26" value="file-v1" style="swimlane;fontStyle=0;childLayout=stackLayout;horizontal=1;startSize=30;horizontalStack=0;resizeParent=1;resizeParentMax=0;resizeLast=0;collapsible=1;marginBottom=0;" parent="1" vertex="1">
          <mxGeometry x="370" y="105" width="80" height="90" as="geometry" />
        </mxCell>
        <mxCell id="WHrjqcX6fxr1J6hnhTvD-27" value="Item 2" style="text;strokeColor=none;fillColor=none;align=left;verticalAlign=middle;spacingLeft=4;spacingRight=4;overflow=hidden;points=[[0,0.5],[1,0.5]];portConstraint=eastwest;rotatable=0;" parent="WHrjqcX6fxr1J6hnhTvD-26" vertex="1">
          <mxGeometry y="30" width="80" height="30" as="geometry" />
        </mxCell>
        <mxCell id="WHrjqcX6fxr1J6hnhTvD-28" value="Item 3" style="text;strokeColor=none;fillColor=none;align=left;verticalAlign=middle;spacingLeft=4;spacingRight=4;overflow=hidden;points=[[0,0.5],[1,0.5]];portConstraint=eastwest;rotatable=0;" parent="WHrjqcX6fxr1J6hnhTvD-26" vertex="1">
          <mxGeometry y="60" width="80" height="30" as="geometry" />
        </mxCell>
        <mxCell id="WHrjqcX6fxr1J6hnhTvD-30" value="nexus repo" style="swimlane;fontStyle=0;childLayout=stackLayout;horizontal=1;startSize=30;horizontalStack=0;resizeParent=1;resizeParentMax=0;resizeLast=0;collapsible=1;marginBottom=0;" parent="1" vertex="1">
          <mxGeometry x="50" y="40" width="80" height="120" as="geometry" />
        </mxCell>
        <mxCell id="WHrjqcX6fxr1J6hnhTvD-31" value="Item 1" style="text;strokeColor=none;fillColor=none;align=left;verticalAlign=middle;spacingLeft=4;spacingRight=4;overflow=hidden;points=[[0,0.5],[1,0.5]];portConstraint=eastwest;rotatable=0;" parent="WHrjqcX6fxr1J6hnhTvD-30" vertex="1">
          <mxGeometry y="30" width="80" height="30" as="geometry" />
        </mxCell>
        <mxCell id="WHrjqcX6fxr1J6hnhTvD-32" value="Item 2" style="text;strokeColor=none;fillColor=none;align=left;verticalAlign=middle;spacingLeft=4;spacingRight=4;overflow=hidden;points=[[0,0.5],[1,0.5]];portConstraint=eastwest;rotatable=0;" parent="WHrjqcX6fxr1J6hnhTvD-30" vertex="1">
          <mxGeometry y="60" width="80" height="30" as="geometry" />
        </mxCell>
        <mxCell id="WHrjqcX6fxr1J6hnhTvD-33" value="Item 3" style="text;strokeColor=none;fillColor=none;align=left;verticalAlign=middle;spacingLeft=4;spacingRight=4;overflow=hidden;points=[[0,0.5],[1,0.5]];portConstraint=eastwest;rotatable=0;" parent="WHrjqcX6fxr1J6hnhTvD-30" vertex="1">
          <mxGeometry y="90" width="80" height="30" as="geometry" />
        </mxCell>
        <mxCell id="WHrjqcX6fxr1J6hnhTvD-49" style="edgeStyle=orthogonalEdgeStyle;rounded=0;orthogonalLoop=1;jettySize=auto;html=1;entryX=0;entryY=0.5;entryDx=0;entryDy=0;" parent="1" source="WHrjqcX6fxr1J6hnhTvD-37" target="WHrjqcX6fxr1J6hnhTvD-47" edge="1">
          <mxGeometry relative="1" as="geometry" />
        </mxCell>
        <mxCell id="WHrjqcX6fxr1J6hnhTvD-50" value="upload" style="edgeLabel;html=1;align=center;verticalAlign=middle;resizable=0;points=[];" parent="WHrjqcX6fxr1J6hnhTvD-49" vertex="1" connectable="0">
          <mxGeometry y="-2" relative="1" as="geometry">
            <mxPoint y="1" as="offset" />
          </mxGeometry>
        </mxCell>
        <mxCell id="WHrjqcX6fxr1J6hnhTvD-37" value="file-v1" style="swimlane;fontStyle=0;childLayout=stackLayout;horizontal=1;startSize=30;horizontalStack=0;resizeParent=1;resizeParentMax=0;resizeLast=0;collapsible=1;marginBottom=0;" parent="1" vertex="1">
          <mxGeometry x="770" y="105" width="80" height="90" as="geometry" />
        </mxCell>
        <mxCell id="WHrjqcX6fxr1J6hnhTvD-38" value="Item 2" style="text;strokeColor=none;fillColor=none;align=left;verticalAlign=middle;spacingLeft=4;spacingRight=4;overflow=hidden;points=[[0,0.5],[1,0.5]];portConstraint=eastwest;rotatable=0;" parent="WHrjqcX6fxr1J6hnhTvD-37" vertex="1">
          <mxGeometry y="30" width="80" height="30" as="geometry" />
        </mxCell>
        <mxCell id="WHrjqcX6fxr1J6hnhTvD-39" value="Item 3" style="text;strokeColor=none;fillColor=none;align=left;verticalAlign=middle;spacingLeft=4;spacingRight=4;overflow=hidden;points=[[0,0.5],[1,0.5]];portConstraint=eastwest;rotatable=0;" parent="WHrjqcX6fxr1J6hnhTvD-37" vertex="1">
          <mxGeometry y="60" width="80" height="30" as="geometry" />
        </mxCell>
        <mxCell id="WHrjqcX6fxr1J6hnhTvD-43" style="edgeStyle=orthogonalEdgeStyle;rounded=0;orthogonalLoop=1;jettySize=auto;html=1;entryX=0;entryY=0.5;entryDx=0;entryDy=0;" parent="1" source="WHrjqcX6fxr1J6hnhTvD-41" target="WHrjqcX6fxr1J6hnhTvD-38" edge="1">
          <mxGeometry relative="1" as="geometry">
            <mxPoint x="710" y="110" as="targetPoint" />
          </mxGeometry>
        </mxCell>
        <mxCell id="WHrjqcX6fxr1J6hnhTvD-44" value="对比版本号" style="edgeLabel;html=1;align=center;verticalAlign=middle;resizable=0;points=[];" parent="WHrjqcX6fxr1J6hnhTvD-43" vertex="1" connectable="0">
          <mxGeometry x="0.2118" y="2" relative="1" as="geometry">
            <mxPoint x="-23" y="-33" as="offset" />
          </mxGeometry>
        </mxCell>
        <mxCell id="WHrjqcX6fxr1J6hnhTvD-41" value="db" style="shape=cylinder3;whiteSpace=wrap;html=1;boundedLbl=1;backgroundOutline=1;size=15;" parent="1" vertex="1">
          <mxGeometry x="650" width="60" height="70" as="geometry" />
        </mxCell>
        <mxCell id="WHrjqcX6fxr1J6hnhTvD-45" value="nexus repo" style="swimlane;fontStyle=0;childLayout=stackLayout;horizontal=1;startSize=30;horizontalStack=0;resizeParent=1;resizeParentMax=0;resizeLast=0;collapsible=1;marginBottom=0;" parent="1" vertex="1">
          <mxGeometry x="940" y="75" width="80" height="120" as="geometry" />
        </mxCell>
        <mxCell id="WHrjqcX6fxr1J6hnhTvD-46" value="Item 1" style="text;strokeColor=none;fillColor=none;align=left;verticalAlign=middle;spacingLeft=4;spacingRight=4;overflow=hidden;points=[[0,0.5],[1,0.5]];portConstraint=eastwest;rotatable=0;" parent="WHrjqcX6fxr1J6hnhTvD-45" vertex="1">
          <mxGeometry y="30" width="80" height="30" as="geometry" />
        </mxCell>
        <mxCell id="WHrjqcX6fxr1J6hnhTvD-47" value="Item 2" style="text;strokeColor=none;fillColor=#FFFF33;align=left;verticalAlign=middle;spacingLeft=4;spacingRight=4;overflow=hidden;points=[[0,0.5],[1,0.5]];portConstraint=eastwest;rotatable=0;" parent="WHrjqcX6fxr1J6hnhTvD-45" vertex="1">
          <mxGeometry y="60" width="80" height="30" as="geometry" />
        </mxCell>
        <mxCell id="WHrjqcX6fxr1J6hnhTvD-48" value="Item 3" style="text;strokeColor=none;fillColor=#FFFF33;align=left;verticalAlign=middle;spacingLeft=4;spacingRight=4;overflow=hidden;points=[[0,0.5],[1,0.5]];portConstraint=eastwest;rotatable=0;" parent="WHrjqcX6fxr1J6hnhTvD-45" vertex="1">
          <mxGeometry y="90" width="80" height="30" as="geometry" />
        </mxCell>
      </root>
    </mxGraphModel>
  </diagram>
  <diagram id="IvShE_yUIunUsrfs2K7l" name="第 6 页">
    <mxGraphModel dx="1186" dy="519" grid="1" gridSize="5" guides="1" tooltips="1" connect="1" arrows="1" fold="1" page="1" pageScale="1" pageWidth="827" pageHeight="1169" math="0" shadow="1">
      <root>
        <mxCell id="0" />
        <mxCell id="1" parent="0" />
        <mxCell id="-iQc2bicIuTs7OXhaWHR-1" value="" style="rounded=0;whiteSpace=wrap;html=1;fillColor=#f5f5f5;fontColor=#333333;strokeColor=#666666;" parent="1" vertex="1">
          <mxGeometry x="20" y="70" width="815" height="445" as="geometry" />
        </mxCell>
        <mxCell id="-iQc2bicIuTs7OXhaWHR-31" value="" style="edgeStyle=orthogonalEdgeStyle;rounded=0;orthogonalLoop=1;jettySize=auto;html=1;" parent="1" source="-iQc2bicIuTs7OXhaWHR-4" target="-iQc2bicIuTs7OXhaWHR-30" edge="1">
          <mxGeometry relative="1" as="geometry" />
        </mxCell>
        <mxCell id="-iQc2bicIuTs7OXhaWHR-4" value="nexus" style="rounded=0;whiteSpace=wrap;html=1;" parent="1" vertex="1">
          <mxGeometry x="250" y="265" width="120" height="60" as="geometry" />
        </mxCell>
        <mxCell id="-iQc2bicIuTs7OXhaWHR-7" value="nexus" style="rounded=0;whiteSpace=wrap;html=1;" parent="1" vertex="1">
          <mxGeometry x="515" y="265" width="120" height="60" as="geometry" />
        </mxCell>
        <mxCell id="-iQc2bicIuTs7OXhaWHR-9" value="" style="endArrow=none;html=1;rounded=0;entryX=0.54;entryY=-0.002;entryDx=0;entryDy=0;entryPerimeter=0;exitX=0.542;exitY=1.002;exitDx=0;exitDy=0;exitPerimeter=0;" parent="1" source="-iQc2bicIuTs7OXhaWHR-1" target="-iQc2bicIuTs7OXhaWHR-1" edge="1">
          <mxGeometry width="50" height="50" relative="1" as="geometry">
            <mxPoint x="440" y="150" as="sourcePoint" />
            <mxPoint x="490" y="100" as="targetPoint" />
          </mxGeometry>
        </mxCell>
        <mxCell id="-iQc2bicIuTs7OXhaWHR-10" value="网闸" style="edgeLabel;html=1;align=center;verticalAlign=middle;resizable=0;points=[];" parent="-iQc2bicIuTs7OXhaWHR-9" vertex="1" connectable="0">
          <mxGeometry x="0.3497" relative="1" as="geometry">
            <mxPoint as="offset" />
          </mxGeometry>
        </mxCell>
        <mxCell id="-iQc2bicIuTs7OXhaWHR-39" style="edgeStyle=orthogonalEdgeStyle;rounded=0;orthogonalLoop=1;jettySize=auto;html=1;entryX=0.5;entryY=1;entryDx=0;entryDy=0;" parent="1" source="-iQc2bicIuTs7OXhaWHR-24" target="-iQc2bicIuTs7OXhaWHR-7" edge="1">
          <mxGeometry relative="1" as="geometry" />
        </mxCell>
        <mxCell id="-iQc2bicIuTs7OXhaWHR-41" value="访问" style="edgeLabel;html=1;align=center;verticalAlign=middle;resizable=0;points=[];" parent="-iQc2bicIuTs7OXhaWHR-39" vertex="1" connectable="0">
          <mxGeometry x="0.4857" relative="1" as="geometry">
            <mxPoint as="offset" />
          </mxGeometry>
        </mxCell>
        <mxCell id="-iQc2bicIuTs7OXhaWHR-40" style="edgeStyle=orthogonalEdgeStyle;rounded=0;orthogonalLoop=1;jettySize=auto;html=1;entryX=0.5;entryY=1;entryDx=0;entryDy=0;" parent="1" source="-iQc2bicIuTs7OXhaWHR-24" target="-iQc2bicIuTs7OXhaWHR-37" edge="1">
          <mxGeometry relative="1" as="geometry" />
        </mxCell>
        <mxCell id="-iQc2bicIuTs7OXhaWHR-42" value="访问" style="edgeLabel;html=1;align=center;verticalAlign=middle;resizable=0;points=[];" parent="-iQc2bicIuTs7OXhaWHR-40" vertex="1" connectable="0">
          <mxGeometry x="0.3433" y="1" relative="1" as="geometry">
            <mxPoint x="1" y="-4" as="offset" />
          </mxGeometry>
        </mxCell>
        <mxCell id="-iQc2bicIuTs7OXhaWHR-24" value="" style="shape=umlActor;verticalLabelPosition=bottom;verticalAlign=top;html=1;outlineConnect=0;" parent="1" vertex="1">
          <mxGeometry x="650" y="395" width="30" height="60" as="geometry" />
        </mxCell>
        <mxCell id="-iQc2bicIuTs7OXhaWHR-25" value="互联网大区" style="text;html=1;strokeColor=none;fillColor=none;align=center;verticalAlign=middle;whiteSpace=wrap;rounded=0;" parent="1" vertex="1">
          <mxGeometry x="175" y="85" width="80" height="30" as="geometry" />
        </mxCell>
        <mxCell id="-iQc2bicIuTs7OXhaWHR-26" value="信息内网大区" style="text;html=1;strokeColor=none;fillColor=none;align=center;verticalAlign=middle;whiteSpace=wrap;rounded=0;" parent="1" vertex="1">
          <mxGeometry x="570" y="90" width="80" height="30" as="geometry" />
        </mxCell>
        <mxCell id="-iQc2bicIuTs7OXhaWHR-27" value="harbor" style="rounded=0;whiteSpace=wrap;html=1;" parent="1" vertex="1">
          <mxGeometry x="80" y="265" width="120" height="60" as="geometry" />
        </mxCell>
        <mxCell id="-iQc2bicIuTs7OXhaWHR-32" style="edgeStyle=orthogonalEdgeStyle;rounded=0;orthogonalLoop=1;jettySize=auto;html=1;entryX=0.5;entryY=1;entryDx=0;entryDy=0;" parent="1" source="-iQc2bicIuTs7OXhaWHR-28" target="-iQc2bicIuTs7OXhaWHR-27" edge="1">
          <mxGeometry relative="1" as="geometry" />
        </mxCell>
        <mxCell id="-iQc2bicIuTs7OXhaWHR-35" value="访问" style="edgeLabel;html=1;align=center;verticalAlign=middle;resizable=0;points=[];" parent="-iQc2bicIuTs7OXhaWHR-32" vertex="1" connectable="0">
          <mxGeometry x="0.3641" relative="1" as="geometry">
            <mxPoint as="offset" />
          </mxGeometry>
        </mxCell>
        <mxCell id="-iQc2bicIuTs7OXhaWHR-33" style="edgeStyle=orthogonalEdgeStyle;rounded=0;orthogonalLoop=1;jettySize=auto;html=1;entryX=0.5;entryY=1;entryDx=0;entryDy=0;" parent="1" source="-iQc2bicIuTs7OXhaWHR-28" target="-iQc2bicIuTs7OXhaWHR-4" edge="1">
          <mxGeometry relative="1" as="geometry" />
        </mxCell>
        <mxCell id="-iQc2bicIuTs7OXhaWHR-34" value="访问" style="edgeLabel;html=1;align=center;verticalAlign=middle;resizable=0;points=[];" parent="-iQc2bicIuTs7OXhaWHR-33" vertex="1" connectable="0">
          <mxGeometry x="0.2821" y="-1" relative="1" as="geometry">
            <mxPoint as="offset" />
          </mxGeometry>
        </mxCell>
        <mxCell id="-iQc2bicIuTs7OXhaWHR-28" value="" style="shape=umlActor;verticalLabelPosition=bottom;verticalAlign=top;html=1;outlineConnect=0;" parent="1" vertex="1">
          <mxGeometry x="210" y="425" width="30" height="50" as="geometry" />
        </mxCell>
        <mxCell id="-iQc2bicIuTs7OXhaWHR-30" value="docker hub" style="rounded=0;whiteSpace=wrap;html=1;" parent="1" vertex="1">
          <mxGeometry x="245" y="155" width="130" height="60" as="geometry" />
        </mxCell>
        <mxCell id="-iQc2bicIuTs7OXhaWHR-36" value="" style="endArrow=none;html=1;rounded=0;exitX=1;exitY=0.5;exitDx=0;exitDy=0;entryX=0;entryY=0.5;entryDx=0;entryDy=0;" parent="1" source="-iQc2bicIuTs7OXhaWHR-4" target="-iQc2bicIuTs7OXhaWHR-7" edge="1">
          <mxGeometry width="50" height="50" relative="1" as="geometry">
            <mxPoint x="435" y="310" as="sourcePoint" />
            <mxPoint x="485" y="260" as="targetPoint" />
          </mxGeometry>
        </mxCell>
        <mxCell id="-iQc2bicIuTs7OXhaWHR-37" value="harbor" style="rounded=0;whiteSpace=wrap;html=1;" parent="1" vertex="1">
          <mxGeometry x="690" y="262.5" width="115" height="62.5" as="geometry" />
        </mxCell>
      </root>
    </mxGraphModel>
  </diagram>
  <diagram id="fIT1zkr9ihzCJq70z9SN" name="第 7 页">
    <mxGraphModel dx="1186" dy="1688" grid="1" gridSize="5" guides="1" tooltips="1" connect="1" arrows="1" fold="1" page="1" pageScale="1" pageWidth="827" pageHeight="1169" math="0" shadow="0">
      <root>
        <mxCell id="0" />
        <mxCell id="1" parent="0" />
        <mxCell id="r__PMjndyIJi11S2HmzI-4" value="" style="rounded=0;whiteSpace=wrap;html=1;shadow=1;dashed=1;" parent="1" vertex="1">
          <mxGeometry x="20" y="130" width="750" height="360" as="geometry" />
        </mxCell>
        <mxCell id="r__PMjndyIJi11S2HmzI-5" value="ingress" style="rounded=0;whiteSpace=wrap;html=1;shadow=1;fillColor=#b0e3e6;strokeColor=#0e8088;" parent="1" vertex="1">
          <mxGeometry x="270" y="40" width="230" height="50" as="geometry" />
        </mxCell>
        <mxCell id="r__PMjndyIJi11S2HmzI-6" value="" style="rounded=0;whiteSpace=wrap;html=1;shadow=1;fillColor=#dae8fc;strokeColor=#6c8ebf;" parent="1" vertex="1">
          <mxGeometry x="60" y="165" width="290" height="245" as="geometry" />
        </mxCell>
        <mxCell id="r__PMjndyIJi11S2HmzI-7" value="" style="rounded=0;whiteSpace=wrap;html=1;shadow=1;dashed=1;fillColor=#f5f5f5;fontColor=#333333;strokeColor=#666666;" parent="1" vertex="1">
          <mxGeometry x="430" y="165" width="290" height="245" as="geometry" />
        </mxCell>
        <mxCell id="r__PMjndyIJi11S2HmzI-8" style="edgeStyle=orthogonalEdgeStyle;rounded=0;orthogonalLoop=1;jettySize=auto;html=1;entryX=0.5;entryY=0;entryDx=0;entryDy=0;" parent="1" source="r__PMjndyIJi11S2HmzI-10" target="r__PMjndyIJi11S2HmzI-14" edge="1">
          <mxGeometry relative="1" as="geometry" />
        </mxCell>
        <mxCell id="r__PMjndyIJi11S2HmzI-9" value="mount" style="edgeLabel;html=1;align=center;verticalAlign=middle;resizable=0;points=[];" parent="r__PMjndyIJi11S2HmzI-8" vertex="1" connectable="0">
          <mxGeometry x="-0.1" relative="1" as="geometry">
            <mxPoint as="offset" />
          </mxGeometry>
        </mxCell>
        <mxCell id="r__PMjndyIJi11S2HmzI-10" value="nexus" style="rounded=0;whiteSpace=wrap;html=1;shadow=1;fillColor=#dae8fc;strokeColor=#6c8ebf;" parent="1" vertex="1">
          <mxGeometry x="120" y="210" width="170" height="60" as="geometry" />
        </mxCell>
        <mxCell id="r__PMjndyIJi11S2HmzI-11" value="" style="edgeStyle=orthogonalEdgeStyle;rounded=0;orthogonalLoop=1;jettySize=auto;html=1;dashed=1;" parent="1" source="r__PMjndyIJi11S2HmzI-12" target="r__PMjndyIJi11S2HmzI-16" edge="1">
          <mxGeometry relative="1" as="geometry" />
        </mxCell>
        <mxCell id="r__PMjndyIJi11S2HmzI-12" value="nexus" style="rounded=0;whiteSpace=wrap;html=1;shadow=1;fillColor=#f5f5f5;fontColor=#333333;strokeColor=#666666;" parent="1" vertex="1">
          <mxGeometry x="490" y="210" width="170" height="60" as="geometry" />
        </mxCell>
        <mxCell id="r__PMjndyIJi11S2HmzI-13" style="edgeStyle=orthogonalEdgeStyle;rounded=0;orthogonalLoop=1;jettySize=auto;html=1;entryX=0.22;entryY=0;entryDx=0;entryDy=0;entryPerimeter=0;" parent="1" source="r__PMjndyIJi11S2HmzI-14" target="r__PMjndyIJi11S2HmzI-17" edge="1">
          <mxGeometry relative="1" as="geometry" />
        </mxCell>
        <mxCell id="r__PMjndyIJi11S2HmzI-14" value="pv:/nexus-data" style="rounded=0;whiteSpace=wrap;html=1;shadow=1;fillColor=#dae8fc;strokeColor=#6c8ebf;" parent="1" vertex="1">
          <mxGeometry x="120" y="330" width="170" height="40" as="geometry" />
        </mxCell>
        <mxCell id="r__PMjndyIJi11S2HmzI-15" style="edgeStyle=orthogonalEdgeStyle;rounded=0;orthogonalLoop=1;jettySize=auto;html=1;entryX=0.78;entryY=0;entryDx=0;entryDy=0;entryPerimeter=0;dashed=1;" parent="1" source="r__PMjndyIJi11S2HmzI-16" target="r__PMjndyIJi11S2HmzI-17" edge="1">
          <mxGeometry relative="1" as="geometry" />
        </mxCell>
        <mxCell id="r__PMjndyIJi11S2HmzI-16" value="pv:/nexus-data" style="rounded=0;whiteSpace=wrap;html=1;shadow=1;fillColor=#f5f5f5;fontColor=#333333;strokeColor=#666666;" parent="1" vertex="1">
          <mxGeometry x="490" y="330" width="170" height="40" as="geometry" />
        </mxCell>
        <mxCell id="r__PMjndyIJi11S2HmzI-17" value="文件存储（ceph）" style="rounded=1;whiteSpace=wrap;html=1;shadow=1;" parent="1" vertex="1">
          <mxGeometry x="60" y="430" width="660" height="40" as="geometry" />
        </mxCell>
        <mxCell id="r__PMjndyIJi11S2HmzI-18" value="" style="endArrow=classic;html=1;rounded=0;entryX=0.5;entryY=0;entryDx=0;entryDy=0;exitX=0.5;exitY=1;exitDx=0;exitDy=0;" parent="1" source="r__PMjndyIJi11S2HmzI-5" target="r__PMjndyIJi11S2HmzI-10" edge="1">
          <mxGeometry width="50" height="50" relative="1" as="geometry">
            <mxPoint x="370" y="130" as="sourcePoint" />
            <mxPoint x="420" y="80" as="targetPoint" />
          </mxGeometry>
        </mxCell>
        <mxCell id="r__PMjndyIJi11S2HmzI-19" value="" style="endArrow=classic;html=1;rounded=0;entryX=0.465;entryY=0;entryDx=0;entryDy=0;entryPerimeter=0;dashed=1;" parent="1" target="r__PMjndyIJi11S2HmzI-12" edge="1">
          <mxGeometry width="50" height="50" relative="1" as="geometry">
            <mxPoint x="390" y="90" as="sourcePoint" />
            <mxPoint x="420" y="170" as="targetPoint" />
          </mxGeometry>
        </mxCell>
        <mxCell id="r__PMjndyIJi11S2HmzI-20" value="" style="edgeStyle=orthogonalEdgeStyle;rounded=0;orthogonalLoop=1;jettySize=auto;html=1;" parent="1" source="r__PMjndyIJi11S2HmzI-21" target="r__PMjndyIJi11S2HmzI-5" edge="1">
          <mxGeometry relative="1" as="geometry" />
        </mxCell>
        <mxCell id="r__PMjndyIJi11S2HmzI-21" value="" style="shape=umlActor;verticalLabelPosition=bottom;verticalAlign=top;html=1;outlineConnect=0;" parent="1" vertex="1">
          <mxGeometry x="370" y="-70" width="30" height="40" as="geometry" />
        </mxCell>
      </root>
    </mxGraphModel>
  </diagram>
  <diagram id="9-UOga6sV1ppKkf0qa7P" name="第 8 页">
    <mxGraphModel dx="2225" dy="553" grid="1" gridSize="10" guides="1" tooltips="1" connect="1" arrows="1" fold="1" page="1" pageScale="1" pageWidth="827" pageHeight="1169" math="0" shadow="0">
      <root>
        <mxCell id="0" />
        <mxCell id="1" parent="0" />
        <mxCell id="zi3oBC51hrb4RaNcoVBg-71" value="" style="rounded=0;whiteSpace=wrap;html=1;dashed=1;strokeWidth=1;fillColor=#f5f5f5;fontColor=#333333;strokeColor=#666666;" vertex="1" parent="1">
          <mxGeometry x="-150" y="20" width="1100" height="660" as="geometry" />
        </mxCell>
        <mxCell id="zi3oBC51hrb4RaNcoVBg-1" value="互联网大区nexus" style="shape=umlLifeline;perimeter=lifelinePerimeter;whiteSpace=wrap;html=1;container=1;collapsible=0;recursiveResize=0;outlineConnect=0;" vertex="1" parent="1">
          <mxGeometry x="150" y="80" width="90" height="570" as="geometry" />
        </mxCell>
        <mxCell id="zi3oBC51hrb4RaNcoVBg-6" value="" style="html=1;points=[];perimeter=orthogonalPerimeter;" vertex="1" parent="zi3oBC51hrb4RaNcoVBg-1">
          <mxGeometry x="45" y="50" width="10" height="120" as="geometry" />
        </mxCell>
        <mxCell id="zi3oBC51hrb4RaNcoVBg-28" value="" style="html=1;points=[];perimeter=orthogonalPerimeter;" vertex="1" parent="zi3oBC51hrb4RaNcoVBg-1">
          <mxGeometry x="40" y="285" width="10" height="235" as="geometry" />
        </mxCell>
        <mxCell id="zi3oBC51hrb4RaNcoVBg-2" value="公网代理库" style="shape=umlLifeline;perimeter=lifelinePerimeter;whiteSpace=wrap;html=1;container=1;collapsible=0;recursiveResize=0;outlineConnect=0;" vertex="1" parent="1">
          <mxGeometry x="314" y="80" width="116" height="580" as="geometry" />
        </mxCell>
        <mxCell id="zi3oBC51hrb4RaNcoVBg-9" value="" style="html=1;points=[];perimeter=orthogonalPerimeter;" vertex="1" parent="zi3oBC51hrb4RaNcoVBg-2">
          <mxGeometry x="58" y="80" width="10" height="40" as="geometry" />
        </mxCell>
        <mxCell id="zi3oBC51hrb4RaNcoVBg-38" value="" style="html=1;points=[];perimeter=orthogonalPerimeter;" vertex="1" parent="zi3oBC51hrb4RaNcoVBg-2">
          <mxGeometry x="53" y="425" width="10" height="80" as="geometry" />
        </mxCell>
        <mxCell id="zi3oBC51hrb4RaNcoVBg-3" value="信息内网大区nexus" style="shape=umlLifeline;perimeter=lifelinePerimeter;whiteSpace=wrap;html=1;container=1;collapsible=0;recursiveResize=0;outlineConnect=0;" vertex="1" parent="1">
          <mxGeometry x="580" y="80" width="100" height="590" as="geometry" />
        </mxCell>
        <mxCell id="zi3oBC51hrb4RaNcoVBg-12" value="" style="html=1;points=[];perimeter=orthogonalPerimeter;" vertex="1" parent="zi3oBC51hrb4RaNcoVBg-3">
          <mxGeometry x="45" y="130" width="10" height="40" as="geometry" />
        </mxCell>
        <mxCell id="zi3oBC51hrb4RaNcoVBg-19" value="" style="html=1;points=[];perimeter=orthogonalPerimeter;" vertex="1" parent="zi3oBC51hrb4RaNcoVBg-3">
          <mxGeometry x="45" y="210" width="10" height="80" as="geometry" />
        </mxCell>
        <mxCell id="zi3oBC51hrb4RaNcoVBg-35" value="" style="html=1;points=[];perimeter=orthogonalPerimeter;" vertex="1" parent="zi3oBC51hrb4RaNcoVBg-3">
          <mxGeometry x="45" y="350" width="10" height="220" as="geometry" />
        </mxCell>
        <mxCell id="zi3oBC51hrb4RaNcoVBg-4" value="" style="shape=umlLifeline;participant=umlActor;perimeter=lifelinePerimeter;whiteSpace=wrap;html=1;container=1;collapsible=0;recursiveResize=0;verticalAlign=top;spacingTop=36;outlineConnect=0;" vertex="1" parent="1">
          <mxGeometry x="10" y="80" width="20" height="580" as="geometry" />
        </mxCell>
        <mxCell id="zi3oBC51hrb4RaNcoVBg-5" value="" style="html=1;points=[];perimeter=orthogonalPerimeter;" vertex="1" parent="zi3oBC51hrb4RaNcoVBg-4">
          <mxGeometry x="5" y="50" width="10" height="60" as="geometry" />
        </mxCell>
        <mxCell id="zi3oBC51hrb4RaNcoVBg-7" style="edgeStyle=orthogonalEdgeStyle;rounded=0;orthogonalLoop=1;jettySize=auto;html=1;entryX=-0.2;entryY=0.25;entryDx=0;entryDy=0;entryPerimeter=0;" edge="1" parent="1" source="zi3oBC51hrb4RaNcoVBg-5" target="zi3oBC51hrb4RaNcoVBg-6">
          <mxGeometry relative="1" as="geometry" />
        </mxCell>
        <mxCell id="zi3oBC51hrb4RaNcoVBg-8" value="创建代理库" style="edgeLabel;html=1;align=center;verticalAlign=middle;resizable=0;points=[];" vertex="1" connectable="0" parent="zi3oBC51hrb4RaNcoVBg-7">
          <mxGeometry x="0.1786" relative="1" as="geometry">
            <mxPoint as="offset" />
          </mxGeometry>
        </mxCell>
        <mxCell id="zi3oBC51hrb4RaNcoVBg-10" style="edgeStyle=orthogonalEdgeStyle;rounded=0;orthogonalLoop=1;jettySize=auto;html=1;entryX=0.1;entryY=0.167;entryDx=0;entryDy=0;entryPerimeter=0;exitX=0.9;exitY=0.283;exitDx=0;exitDy=0;exitPerimeter=0;" edge="1" parent="1" source="zi3oBC51hrb4RaNcoVBg-6" target="zi3oBC51hrb4RaNcoVBg-9">
          <mxGeometry relative="1" as="geometry" />
        </mxCell>
        <mxCell id="zi3oBC51hrb4RaNcoVBg-11" value="代理公网地址" style="edgeLabel;html=1;align=center;verticalAlign=middle;resizable=0;points=[];" vertex="1" connectable="0" parent="zi3oBC51hrb4RaNcoVBg-10">
          <mxGeometry x="0.119" y="2" relative="1" as="geometry">
            <mxPoint as="offset" />
          </mxGeometry>
        </mxCell>
        <mxCell id="zi3oBC51hrb4RaNcoVBg-15" style="edgeStyle=orthogonalEdgeStyle;rounded=0;orthogonalLoop=1;jettySize=auto;html=1;entryX=0.9;entryY=0.858;entryDx=0;entryDy=0;entryPerimeter=0;" edge="1" parent="1" source="zi3oBC51hrb4RaNcoVBg-13" target="zi3oBC51hrb4RaNcoVBg-6">
          <mxGeometry relative="1" as="geometry" />
        </mxCell>
        <mxCell id="zi3oBC51hrb4RaNcoVBg-17" value="新增proxy仓库代理互联网大区新增proxy库" style="edgeLabel;html=1;align=center;verticalAlign=middle;resizable=0;points=[];" vertex="1" connectable="0" parent="zi3oBC51hrb4RaNcoVBg-15">
          <mxGeometry x="-0.2015" y="-1" relative="1" as="geometry">
            <mxPoint x="-13" y="1" as="offset" />
          </mxGeometry>
        </mxCell>
        <mxCell id="zi3oBC51hrb4RaNcoVBg-13" value="监听新增" style="ellipse;shape=umlControl;whiteSpace=wrap;html=1;" vertex="1" parent="1">
          <mxGeometry x="470" y="190" width="70" height="80" as="geometry" />
        </mxCell>
        <mxCell id="zi3oBC51hrb4RaNcoVBg-16" style="edgeStyle=orthogonalEdgeStyle;rounded=0;orthogonalLoop=1;jettySize=auto;html=1;entryX=1.043;entryY=0.5;entryDx=0;entryDy=0;entryPerimeter=0;" edge="1" parent="1" source="zi3oBC51hrb4RaNcoVBg-12" target="zi3oBC51hrb4RaNcoVBg-13">
          <mxGeometry relative="1" as="geometry" />
        </mxCell>
        <mxCell id="zi3oBC51hrb4RaNcoVBg-20" style="edgeStyle=orthogonalEdgeStyle;rounded=0;orthogonalLoop=1;jettySize=auto;html=1;exitX=-0.1;exitY=0.169;exitDx=0;exitDy=0;exitPerimeter=0;" edge="1" parent="1" source="zi3oBC51hrb4RaNcoVBg-59">
          <mxGeometry relative="1" as="geometry">
            <mxPoint x="640" y="288" as="targetPoint" />
            <Array as="points" />
          </mxGeometry>
        </mxCell>
        <mxCell id="zi3oBC51hrb4RaNcoVBg-21" value="拉取依赖" style="edgeLabel;html=1;align=center;verticalAlign=middle;resizable=0;points=[];" vertex="1" connectable="0" parent="zi3oBC51hrb4RaNcoVBg-20">
          <mxGeometry x="0.0788" y="1" relative="1" as="geometry">
            <mxPoint as="offset" />
          </mxGeometry>
        </mxCell>
        <mxCell id="zi3oBC51hrb4RaNcoVBg-24" style="edgeStyle=orthogonalEdgeStyle;rounded=0;orthogonalLoop=1;jettySize=auto;html=1;entryX=-0.1;entryY=0.75;entryDx=0;entryDy=0;entryPerimeter=0;" edge="1" parent="1" source="zi3oBC51hrb4RaNcoVBg-22" target="zi3oBC51hrb4RaNcoVBg-59">
          <mxGeometry relative="1" as="geometry">
            <mxPoint x="780" y="350" as="targetPoint" />
            <Array as="points" />
          </mxGeometry>
        </mxCell>
        <mxCell id="zi3oBC51hrb4RaNcoVBg-26" value="Y" style="edgeLabel;html=1;align=center;verticalAlign=middle;resizable=0;points=[];" vertex="1" connectable="0" parent="zi3oBC51hrb4RaNcoVBg-24">
          <mxGeometry x="-0.8702" y="1" relative="1" as="geometry">
            <mxPoint as="offset" />
          </mxGeometry>
        </mxCell>
        <mxCell id="zi3oBC51hrb4RaNcoVBg-27" value="返回依赖" style="edgeLabel;html=1;align=center;verticalAlign=middle;resizable=0;points=[];" vertex="1" connectable="0" parent="zi3oBC51hrb4RaNcoVBg-24">
          <mxGeometry x="-0.112" relative="1" as="geometry">
            <mxPoint as="offset" />
          </mxGeometry>
        </mxCell>
        <mxCell id="zi3oBC51hrb4RaNcoVBg-29" style="edgeStyle=orthogonalEdgeStyle;rounded=0;orthogonalLoop=1;jettySize=auto;html=1;" edge="1" parent="1" source="zi3oBC51hrb4RaNcoVBg-22" target="zi3oBC51hrb4RaNcoVBg-28">
          <mxGeometry relative="1" as="geometry">
            <Array as="points">
              <mxPoint x="195" y="380" />
            </Array>
          </mxGeometry>
        </mxCell>
        <mxCell id="zi3oBC51hrb4RaNcoVBg-30" value="N" style="edgeLabel;html=1;align=center;verticalAlign=middle;resizable=0;points=[];" vertex="1" connectable="0" parent="zi3oBC51hrb4RaNcoVBg-29">
          <mxGeometry x="-0.9041" y="1" relative="1" as="geometry">
            <mxPoint as="offset" />
          </mxGeometry>
        </mxCell>
        <mxCell id="zi3oBC51hrb4RaNcoVBg-31" value="通过代理地址到互联网大区下载依赖" style="edgeLabel;html=1;align=center;verticalAlign=middle;resizable=0;points=[];" vertex="1" connectable="0" parent="zi3oBC51hrb4RaNcoVBg-29">
          <mxGeometry x="-0.0247" y="1" relative="1" as="geometry">
            <mxPoint as="offset" />
          </mxGeometry>
        </mxCell>
        <mxCell id="zi3oBC51hrb4RaNcoVBg-22" value="本地是否存在依赖" style="rhombus;whiteSpace=wrap;html=1;" vertex="1" parent="1">
          <mxGeometry x="500" y="335" width="80" height="80" as="geometry" />
        </mxCell>
        <mxCell id="zi3oBC51hrb4RaNcoVBg-23" value="" style="edgeStyle=orthogonalEdgeStyle;rounded=0;orthogonalLoop=1;jettySize=auto;html=1;" edge="1" parent="1" source="zi3oBC51hrb4RaNcoVBg-19" target="zi3oBC51hrb4RaNcoVBg-22">
          <mxGeometry relative="1" as="geometry">
            <Array as="points">
              <mxPoint x="620" y="330" />
              <mxPoint x="620" y="330" />
            </Array>
          </mxGeometry>
        </mxCell>
        <mxCell id="zi3oBC51hrb4RaNcoVBg-36" style="edgeStyle=orthogonalEdgeStyle;rounded=0;orthogonalLoop=1;jettySize=auto;html=1;entryX=0.5;entryY=0.205;entryDx=0;entryDy=0;entryPerimeter=0;" edge="1" parent="1" source="zi3oBC51hrb4RaNcoVBg-33" target="zi3oBC51hrb4RaNcoVBg-35">
          <mxGeometry relative="1" as="geometry" />
        </mxCell>
        <mxCell id="zi3oBC51hrb4RaNcoVBg-37" value="返回依赖" style="edgeLabel;html=1;align=center;verticalAlign=middle;resizable=0;points=[];" vertex="1" connectable="0" parent="zi3oBC51hrb4RaNcoVBg-36">
          <mxGeometry x="-0.1254" relative="1" as="geometry">
            <mxPoint as="offset" />
          </mxGeometry>
        </mxCell>
        <mxCell id="zi3oBC51hrb4RaNcoVBg-40" value="Y" style="edgeLabel;html=1;align=center;verticalAlign=middle;resizable=0;points=[];" vertex="1" connectable="0" parent="zi3oBC51hrb4RaNcoVBg-36">
          <mxGeometry x="-0.8919" y="1" relative="1" as="geometry">
            <mxPoint as="offset" />
          </mxGeometry>
        </mxCell>
        <mxCell id="zi3oBC51hrb4RaNcoVBg-50" style="edgeStyle=orthogonalEdgeStyle;rounded=0;orthogonalLoop=1;jettySize=auto;html=1;entryX=0.3;entryY=0.313;entryDx=0;entryDy=0;entryPerimeter=0;" edge="1" parent="1" source="zi3oBC51hrb4RaNcoVBg-33" target="zi3oBC51hrb4RaNcoVBg-38">
          <mxGeometry relative="1" as="geometry">
            <Array as="points">
              <mxPoint x="290" y="530" />
            </Array>
          </mxGeometry>
        </mxCell>
        <mxCell id="zi3oBC51hrb4RaNcoVBg-51" value="N" style="edgeLabel;html=1;align=center;verticalAlign=middle;resizable=0;points=[];" vertex="1" connectable="0" parent="zi3oBC51hrb4RaNcoVBg-50">
          <mxGeometry x="-0.78" y="1" relative="1" as="geometry">
            <mxPoint as="offset" />
          </mxGeometry>
        </mxCell>
        <mxCell id="zi3oBC51hrb4RaNcoVBg-52" value="下载依赖" style="edgeLabel;html=1;align=center;verticalAlign=middle;resizable=0;points=[];" vertex="1" connectable="0" parent="zi3oBC51hrb4RaNcoVBg-50">
          <mxGeometry x="0.16" y="-2" relative="1" as="geometry">
            <mxPoint as="offset" />
          </mxGeometry>
        </mxCell>
        <mxCell id="zi3oBC51hrb4RaNcoVBg-33" value="本地是否存在依赖" style="rhombus;whiteSpace=wrap;html=1;" vertex="1" parent="1">
          <mxGeometry x="250" y="440" width="80" height="70" as="geometry" />
        </mxCell>
        <mxCell id="zi3oBC51hrb4RaNcoVBg-34" value="" style="edgeStyle=orthogonalEdgeStyle;rounded=0;orthogonalLoop=1;jettySize=auto;html=1;entryX=0;entryY=0.5;entryDx=0;entryDy=0;" edge="1" parent="1" source="zi3oBC51hrb4RaNcoVBg-28" target="zi3oBC51hrb4RaNcoVBg-33">
          <mxGeometry relative="1" as="geometry">
            <Array as="points">
              <mxPoint x="220" y="475" />
              <mxPoint x="220" y="475" />
            </Array>
          </mxGeometry>
        </mxCell>
        <mxCell id="zi3oBC51hrb4RaNcoVBg-42" style="edgeStyle=orthogonalEdgeStyle;rounded=0;orthogonalLoop=1;jettySize=auto;html=1;entryX=1.1;entryY=0.873;entryDx=0;entryDy=0;entryPerimeter=0;" edge="1" parent="1" source="zi3oBC51hrb4RaNcoVBg-38" target="zi3oBC51hrb4RaNcoVBg-28">
          <mxGeometry relative="1" as="geometry">
            <Array as="points">
              <mxPoint x="260" y="570" />
              <mxPoint x="260" y="570" />
            </Array>
          </mxGeometry>
        </mxCell>
        <mxCell id="zi3oBC51hrb4RaNcoVBg-43" value="返回依赖" style="edgeLabel;html=1;align=center;verticalAlign=middle;resizable=0;points=[];" vertex="1" connectable="0" parent="zi3oBC51hrb4RaNcoVBg-42">
          <mxGeometry x="-0.1566" relative="1" as="geometry">
            <mxPoint as="offset" />
          </mxGeometry>
        </mxCell>
        <mxCell id="zi3oBC51hrb4RaNcoVBg-44" style="edgeStyle=orthogonalEdgeStyle;rounded=0;orthogonalLoop=1;jettySize=auto;html=1;entryX=0.5;entryY=0.773;entryDx=0;entryDy=0;entryPerimeter=0;" edge="1" parent="1" source="zi3oBC51hrb4RaNcoVBg-28" target="zi3oBC51hrb4RaNcoVBg-35">
          <mxGeometry relative="1" as="geometry">
            <Array as="points">
              <mxPoint x="380" y="600" />
              <mxPoint x="380" y="600" />
            </Array>
          </mxGeometry>
        </mxCell>
        <mxCell id="zi3oBC51hrb4RaNcoVBg-45" value="返回依赖" style="edgeLabel;html=1;align=center;verticalAlign=middle;resizable=0;points=[];" vertex="1" connectable="0" parent="zi3oBC51hrb4RaNcoVBg-44">
          <mxGeometry x="-0.0419" y="2" relative="1" as="geometry">
            <mxPoint as="offset" />
          </mxGeometry>
        </mxCell>
        <mxCell id="zi3oBC51hrb4RaNcoVBg-47" style="edgeStyle=orthogonalEdgeStyle;rounded=0;orthogonalLoop=1;jettySize=auto;html=1;exitX=0.9;exitY=0.864;exitDx=0;exitDy=0;exitPerimeter=0;" edge="1" parent="1" source="zi3oBC51hrb4RaNcoVBg-35" target="zi3oBC51hrb4RaNcoVBg-46">
          <mxGeometry relative="1" as="geometry">
            <Array as="points" />
          </mxGeometry>
        </mxCell>
        <mxCell id="zi3oBC51hrb4RaNcoVBg-48" value="返回依赖" style="edgeLabel;html=1;align=center;verticalAlign=middle;resizable=0;points=[];" vertex="1" connectable="0" parent="zi3oBC51hrb4RaNcoVBg-47">
          <mxGeometry x="-0.0792" y="-2" relative="1" as="geometry">
            <mxPoint as="offset" />
          </mxGeometry>
        </mxCell>
        <mxCell id="zi3oBC51hrb4RaNcoVBg-54" value="" style="endArrow=none;dashed=1;html=1;rounded=0;" edge="1" parent="1">
          <mxGeometry width="50" height="50" relative="1" as="geometry">
            <mxPoint x="460" y="680" as="sourcePoint" />
            <mxPoint x="460" y="20" as="targetPoint" />
          </mxGeometry>
        </mxCell>
        <mxCell id="zi3oBC51hrb4RaNcoVBg-55" value="互联网大区" style="text;html=1;strokeColor=none;fillColor=none;align=center;verticalAlign=middle;whiteSpace=wrap;rounded=0;" vertex="1" parent="1">
          <mxGeometry x="224" y="20" width="90" height="30" as="geometry" />
        </mxCell>
        <mxCell id="zi3oBC51hrb4RaNcoVBg-56" value="信息内网大区" style="text;html=1;strokeColor=none;fillColor=none;align=center;verticalAlign=middle;whiteSpace=wrap;rounded=0;" vertex="1" parent="1">
          <mxGeometry x="600" y="20" width="90" height="30" as="geometry" />
        </mxCell>
        <mxCell id="zi3oBC51hrb4RaNcoVBg-57" value="" style="shape=umlLifeline;participant=umlActor;perimeter=lifelinePerimeter;whiteSpace=wrap;html=1;container=1;collapsible=0;recursiveResize=0;verticalAlign=top;spacingTop=36;outlineConnect=0;" vertex="1" parent="1">
          <mxGeometry x="790" y="70" width="20" height="590" as="geometry" />
        </mxCell>
        <mxCell id="zi3oBC51hrb4RaNcoVBg-59" value="" style="html=1;points=[];perimeter=orthogonalPerimeter;" vertex="1" parent="zi3oBC51hrb4RaNcoVBg-57">
          <mxGeometry x="5" y="190" width="10" height="160" as="geometry" />
        </mxCell>
        <mxCell id="zi3oBC51hrb4RaNcoVBg-60" value="" style="html=1;points=[];perimeter=orthogonalPerimeter;" vertex="1" parent="zi3oBC51hrb4RaNcoVBg-57">
          <mxGeometry x="5" y="400" width="10" height="80" as="geometry" />
        </mxCell>
        <mxCell id="zi3oBC51hrb4RaNcoVBg-46" value="" style="html=1;points=[];perimeter=orthogonalPerimeter;" vertex="1" parent="zi3oBC51hrb4RaNcoVBg-57">
          <mxGeometry x="5" y="510" width="10" height="80" as="geometry" />
        </mxCell>
        <mxCell id="zi3oBC51hrb4RaNcoVBg-64" style="edgeStyle=orthogonalEdgeStyle;rounded=0;orthogonalLoop=1;jettySize=auto;html=1;entryX=0.5;entryY=0.5;entryDx=0;entryDy=0;entryPerimeter=0;exitX=1.2;exitY=0.364;exitDx=0;exitDy=0;exitPerimeter=0;" edge="1" parent="1" source="zi3oBC51hrb4RaNcoVBg-35" target="zi3oBC51hrb4RaNcoVBg-60">
          <mxGeometry relative="1" as="geometry" />
        </mxCell>
        <mxCell id="zi3oBC51hrb4RaNcoVBg-65" value="返回依赖" style="edgeLabel;html=1;align=center;verticalAlign=middle;resizable=0;points=[];" vertex="1" connectable="0" parent="zi3oBC51hrb4RaNcoVBg-64">
          <mxGeometry x="-0.2029" y="-1" relative="1" as="geometry">
            <mxPoint x="-3" as="offset" />
          </mxGeometry>
        </mxCell>
        <mxCell id="zi3oBC51hrb4RaNcoVBg-67" value="" style="strokeWidth=1;html=1;shape=mxgraph.flowchart.annotation_1;align=left;pointerEvents=1;dashed=1;" vertex="1" parent="1">
          <mxGeometry x="-60" y="90" width="50" height="160" as="geometry" />
        </mxCell>
        <mxCell id="zi3oBC51hrb4RaNcoVBg-68" value="代理库创建" style="text;html=1;strokeColor=none;fillColor=none;align=center;verticalAlign=middle;whiteSpace=wrap;rounded=0;" vertex="1" parent="1">
          <mxGeometry x="-140" y="150" width="70" height="40" as="geometry" />
        </mxCell>
        <mxCell id="zi3oBC51hrb4RaNcoVBg-69" value="" style="strokeWidth=1;html=1;shape=mxgraph.flowchart.annotation_1;align=left;pointerEvents=1;dashed=1;direction=west;" vertex="1" parent="1">
          <mxGeometry x="827" y="260" width="60" height="400" as="geometry" />
        </mxCell>
        <mxCell id="zi3oBC51hrb4RaNcoVBg-70" value="依赖拉取" style="text;html=1;strokeColor=none;fillColor=none;align=center;verticalAlign=middle;whiteSpace=wrap;rounded=0;dashed=1;" vertex="1" parent="1">
          <mxGeometry x="887" y="415" width="60" height="30" as="geometry" />
        </mxCell>
      </root>
    </mxGraphModel>
  </diagram>
</mxfile>
